%TF.GenerationSoftware,KiCad,Pcbnew,9.0.6-9.0.6~ubuntu22.04.1*%
%TF.CreationDate,2025-11-18T11:24:41-06:00*%
%TF.ProjectId,ESP32-Simple-Thermostat-PCB,45535033-322d-4536-996d-706c652d5468,rev?*%
%TF.SameCoordinates,Original*%
%TF.FileFunction,Legend,Top*%
%TF.FilePolarity,Positive*%
%FSLAX46Y46*%
G04 Gerber Fmt 4.6, Leading zero omitted, Abs format (unit mm)*
G04 Created by KiCad (PCBNEW 9.0.6-9.0.6~ubuntu22.04.1) date 2025-11-18 11:24:41*
%MOMM*%
%LPD*%
G01*
G04 APERTURE LIST*
G04 Aperture macros list*
%AMRoundRect*
0 Rectangle with rounded corners*
0 $1 Rounding radius*
0 $2 $3 $4 $5 $6 $7 $8 $9 X,Y pos of 4 corners*
0 Add a 4 corners polygon primitive as box body*
4,1,4,$2,$3,$4,$5,$6,$7,$8,$9,$2,$3,0*
0 Add four circle primitives for the rounded corners*
1,1,$1+$1,$2,$3*
1,1,$1+$1,$4,$5*
1,1,$1+$1,$6,$7*
1,1,$1+$1,$8,$9*
0 Add four rect primitives between the rounded corners*
20,1,$1+$1,$2,$3,$4,$5,0*
20,1,$1+$1,$4,$5,$6,$7,0*
20,1,$1+$1,$6,$7,$8,$9,0*
20,1,$1+$1,$8,$9,$2,$3,0*%
G04 Aperture macros list end*
%ADD10C,0.150000*%
%ADD11C,0.120000*%
%ADD12C,0.200000*%
%ADD13C,0.100000*%
%ADD14C,0.170000*%
%ADD15C,0.400000*%
%ADD16C,0.500000*%
%ADD17C,6.000000*%
%ADD18R,2.300000X2.300000*%
%ADD19C,2.300000*%
%ADD20R,1.500000X1.500000*%
%ADD21C,1.500000*%
%ADD22RoundRect,0.250001X-0.949999X0.949999X-0.949999X-0.949999X0.949999X-0.949999X0.949999X0.949999X0*%
%ADD23C,2.400000*%
%ADD24R,2.200000X2.200000*%
%ADD25O,2.200000X2.200000*%
%ADD26R,1.700000X1.700000*%
%ADD27C,1.700000*%
%ADD28C,1.600000*%
%ADD29C,2.700000*%
%ADD30O,2.400000X1.800000*%
%ADD31RoundRect,0.250000X0.550000X0.550000X-0.550000X0.550000X-0.550000X-0.550000X0.550000X-0.550000X0*%
%ADD32R,2.400000X2.400000*%
%ADD33RoundRect,0.250000X-2.050000X-0.300000X2.050000X-0.300000X2.050000X0.300000X-2.050000X0.300000X0*%
%ADD34RoundRect,0.250002X-4.449998X-5.149998X4.449998X-5.149998X4.449998X5.149998X-4.449998X5.149998X0*%
%ADD35RoundRect,0.250000X1.400000X1.000000X-1.400000X1.000000X-1.400000X-1.000000X1.400000X-1.000000X0*%
%ADD36R,2.900000X5.400000*%
%ADD37RoundRect,0.250001X-0.949999X-0.949999X0.949999X-0.949999X0.949999X0.949999X-0.949999X0.949999X0*%
G04 APERTURE END LIST*
D10*
X51361905Y-31094819D02*
X51361905Y-30094819D01*
X51933333Y-31094819D02*
X51504762Y-30523390D01*
X51933333Y-30094819D02*
X51361905Y-30666247D01*
X52885714Y-31094819D02*
X52314286Y-31094819D01*
X52600000Y-31094819D02*
X52600000Y-30094819D01*
X52600000Y-30094819D02*
X52504762Y-30237676D01*
X52504762Y-30237676D02*
X52409524Y-30332914D01*
X52409524Y-30332914D02*
X52314286Y-30380533D01*
X29835595Y-98242319D02*
X29835595Y-99051842D01*
X29835595Y-99051842D02*
X29883214Y-99147080D01*
X29883214Y-99147080D02*
X29930833Y-99194700D01*
X29930833Y-99194700D02*
X30026071Y-99242319D01*
X30026071Y-99242319D02*
X30216547Y-99242319D01*
X30216547Y-99242319D02*
X30311785Y-99194700D01*
X30311785Y-99194700D02*
X30359404Y-99147080D01*
X30359404Y-99147080D02*
X30407023Y-99051842D01*
X30407023Y-99051842D02*
X30407023Y-98242319D01*
X30787976Y-98242319D02*
X31407023Y-98242319D01*
X31407023Y-98242319D02*
X31073690Y-98623271D01*
X31073690Y-98623271D02*
X31216547Y-98623271D01*
X31216547Y-98623271D02*
X31311785Y-98670890D01*
X31311785Y-98670890D02*
X31359404Y-98718509D01*
X31359404Y-98718509D02*
X31407023Y-98813747D01*
X31407023Y-98813747D02*
X31407023Y-99051842D01*
X31407023Y-99051842D02*
X31359404Y-99147080D01*
X31359404Y-99147080D02*
X31311785Y-99194700D01*
X31311785Y-99194700D02*
X31216547Y-99242319D01*
X31216547Y-99242319D02*
X30930833Y-99242319D01*
X30930833Y-99242319D02*
X30835595Y-99194700D01*
X30835595Y-99194700D02*
X30787976Y-99147080D01*
X74714761Y-58990057D02*
X74619523Y-58942438D01*
X74619523Y-58942438D02*
X74524285Y-58847200D01*
X74524285Y-58847200D02*
X74381428Y-58704342D01*
X74381428Y-58704342D02*
X74286190Y-58656723D01*
X74286190Y-58656723D02*
X74190952Y-58656723D01*
X74238571Y-58894819D02*
X74143333Y-58847200D01*
X74143333Y-58847200D02*
X74048095Y-58751961D01*
X74048095Y-58751961D02*
X74000476Y-58561485D01*
X74000476Y-58561485D02*
X74000476Y-58228152D01*
X74000476Y-58228152D02*
X74048095Y-58037676D01*
X74048095Y-58037676D02*
X74143333Y-57942438D01*
X74143333Y-57942438D02*
X74238571Y-57894819D01*
X74238571Y-57894819D02*
X74429047Y-57894819D01*
X74429047Y-57894819D02*
X74524285Y-57942438D01*
X74524285Y-57942438D02*
X74619523Y-58037676D01*
X74619523Y-58037676D02*
X74667142Y-58228152D01*
X74667142Y-58228152D02*
X74667142Y-58561485D01*
X74667142Y-58561485D02*
X74619523Y-58751961D01*
X74619523Y-58751961D02*
X74524285Y-58847200D01*
X74524285Y-58847200D02*
X74429047Y-58894819D01*
X74429047Y-58894819D02*
X74238571Y-58894819D01*
X75000476Y-57894819D02*
X75619523Y-57894819D01*
X75619523Y-57894819D02*
X75286190Y-58275771D01*
X75286190Y-58275771D02*
X75429047Y-58275771D01*
X75429047Y-58275771D02*
X75524285Y-58323390D01*
X75524285Y-58323390D02*
X75571904Y-58371009D01*
X75571904Y-58371009D02*
X75619523Y-58466247D01*
X75619523Y-58466247D02*
X75619523Y-58704342D01*
X75619523Y-58704342D02*
X75571904Y-58799580D01*
X75571904Y-58799580D02*
X75524285Y-58847200D01*
X75524285Y-58847200D02*
X75429047Y-58894819D01*
X75429047Y-58894819D02*
X75143333Y-58894819D01*
X75143333Y-58894819D02*
X75048095Y-58847200D01*
X75048095Y-58847200D02*
X75000476Y-58799580D01*
X72081857Y-60538871D02*
X71781857Y-60538871D01*
X71653285Y-60067442D02*
X72081857Y-60067442D01*
X72081857Y-60067442D02*
X72081857Y-60967442D01*
X72081857Y-60967442D02*
X71653285Y-60967442D01*
X77452428Y-60153157D02*
X77495285Y-60110300D01*
X77495285Y-60110300D02*
X77623857Y-60067442D01*
X77623857Y-60067442D02*
X77709571Y-60067442D01*
X77709571Y-60067442D02*
X77838142Y-60110300D01*
X77838142Y-60110300D02*
X77923857Y-60196014D01*
X77923857Y-60196014D02*
X77966714Y-60281728D01*
X77966714Y-60281728D02*
X78009571Y-60453157D01*
X78009571Y-60453157D02*
X78009571Y-60581728D01*
X78009571Y-60581728D02*
X77966714Y-60753157D01*
X77966714Y-60753157D02*
X77923857Y-60838871D01*
X77923857Y-60838871D02*
X77838142Y-60924585D01*
X77838142Y-60924585D02*
X77709571Y-60967442D01*
X77709571Y-60967442D02*
X77623857Y-60967442D01*
X77623857Y-60967442D02*
X77495285Y-60924585D01*
X77495285Y-60924585D02*
X77452428Y-60881728D01*
X74745714Y-60538871D02*
X74617142Y-60496014D01*
X74617142Y-60496014D02*
X74574285Y-60453157D01*
X74574285Y-60453157D02*
X74531428Y-60367442D01*
X74531428Y-60367442D02*
X74531428Y-60238871D01*
X74531428Y-60238871D02*
X74574285Y-60153157D01*
X74574285Y-60153157D02*
X74617142Y-60110300D01*
X74617142Y-60110300D02*
X74702857Y-60067442D01*
X74702857Y-60067442D02*
X75045714Y-60067442D01*
X75045714Y-60067442D02*
X75045714Y-60967442D01*
X75045714Y-60967442D02*
X74745714Y-60967442D01*
X74745714Y-60967442D02*
X74660000Y-60924585D01*
X74660000Y-60924585D02*
X74617142Y-60881728D01*
X74617142Y-60881728D02*
X74574285Y-60796014D01*
X74574285Y-60796014D02*
X74574285Y-60710300D01*
X74574285Y-60710300D02*
X74617142Y-60624585D01*
X74617142Y-60624585D02*
X74660000Y-60581728D01*
X74660000Y-60581728D02*
X74745714Y-60538871D01*
X74745714Y-60538871D02*
X75045714Y-60538871D01*
X51361905Y-93844819D02*
X51361905Y-92844819D01*
X51933333Y-93844819D02*
X51504762Y-93273390D01*
X51933333Y-92844819D02*
X51361905Y-93416247D01*
X52790476Y-92844819D02*
X52600000Y-92844819D01*
X52600000Y-92844819D02*
X52504762Y-92892438D01*
X52504762Y-92892438D02*
X52457143Y-92940057D01*
X52457143Y-92940057D02*
X52361905Y-93082914D01*
X52361905Y-93082914D02*
X52314286Y-93273390D01*
X52314286Y-93273390D02*
X52314286Y-93654342D01*
X52314286Y-93654342D02*
X52361905Y-93749580D01*
X52361905Y-93749580D02*
X52409524Y-93797200D01*
X52409524Y-93797200D02*
X52504762Y-93844819D01*
X52504762Y-93844819D02*
X52695238Y-93844819D01*
X52695238Y-93844819D02*
X52790476Y-93797200D01*
X52790476Y-93797200D02*
X52838095Y-93749580D01*
X52838095Y-93749580D02*
X52885714Y-93654342D01*
X52885714Y-93654342D02*
X52885714Y-93416247D01*
X52885714Y-93416247D02*
X52838095Y-93321009D01*
X52838095Y-93321009D02*
X52790476Y-93273390D01*
X52790476Y-93273390D02*
X52695238Y-93225771D01*
X52695238Y-93225771D02*
X52504762Y-93225771D01*
X52504762Y-93225771D02*
X52409524Y-93273390D01*
X52409524Y-93273390D02*
X52361905Y-93321009D01*
X52361905Y-93321009D02*
X52314286Y-93416247D01*
X37174819Y-48333333D02*
X37889104Y-48333333D01*
X37889104Y-48333333D02*
X38031961Y-48380952D01*
X38031961Y-48380952D02*
X38127200Y-48476190D01*
X38127200Y-48476190D02*
X38174819Y-48619047D01*
X38174819Y-48619047D02*
X38174819Y-48714285D01*
X37270057Y-47904761D02*
X37222438Y-47857142D01*
X37222438Y-47857142D02*
X37174819Y-47761904D01*
X37174819Y-47761904D02*
X37174819Y-47523809D01*
X37174819Y-47523809D02*
X37222438Y-47428571D01*
X37222438Y-47428571D02*
X37270057Y-47380952D01*
X37270057Y-47380952D02*
X37365295Y-47333333D01*
X37365295Y-47333333D02*
X37460533Y-47333333D01*
X37460533Y-47333333D02*
X37603390Y-47380952D01*
X37603390Y-47380952D02*
X38174819Y-47952380D01*
X38174819Y-47952380D02*
X38174819Y-47333333D01*
X84761905Y-72484819D02*
X84761905Y-71484819D01*
X84761905Y-71484819D02*
X85000000Y-71484819D01*
X85000000Y-71484819D02*
X85142857Y-71532438D01*
X85142857Y-71532438D02*
X85238095Y-71627676D01*
X85238095Y-71627676D02*
X85285714Y-71722914D01*
X85285714Y-71722914D02*
X85333333Y-71913390D01*
X85333333Y-71913390D02*
X85333333Y-72056247D01*
X85333333Y-72056247D02*
X85285714Y-72246723D01*
X85285714Y-72246723D02*
X85238095Y-72341961D01*
X85238095Y-72341961D02*
X85142857Y-72437200D01*
X85142857Y-72437200D02*
X85000000Y-72484819D01*
X85000000Y-72484819D02*
X84761905Y-72484819D01*
X86190476Y-71818152D02*
X86190476Y-72484819D01*
X85952381Y-71437200D02*
X85714286Y-72151485D01*
X85714286Y-72151485D02*
X86333333Y-72151485D01*
X81428095Y-72854819D02*
X81428095Y-71854819D01*
X81999523Y-72854819D02*
X81570952Y-72283390D01*
X81999523Y-71854819D02*
X81428095Y-72426247D01*
X95476666Y-37634819D02*
X95476666Y-38349104D01*
X95476666Y-38349104D02*
X95429047Y-38491961D01*
X95429047Y-38491961D02*
X95333809Y-38587200D01*
X95333809Y-38587200D02*
X95190952Y-38634819D01*
X95190952Y-38634819D02*
X95095714Y-38634819D01*
X96476666Y-38634819D02*
X95905238Y-38634819D01*
X96190952Y-38634819D02*
X96190952Y-37634819D01*
X96190952Y-37634819D02*
X96095714Y-37777676D01*
X96095714Y-37777676D02*
X96000476Y-37872914D01*
X96000476Y-37872914D02*
X95905238Y-37920533D01*
X145083333Y-62359580D02*
X145035714Y-62407200D01*
X145035714Y-62407200D02*
X144892857Y-62454819D01*
X144892857Y-62454819D02*
X144797619Y-62454819D01*
X144797619Y-62454819D02*
X144654762Y-62407200D01*
X144654762Y-62407200D02*
X144559524Y-62311961D01*
X144559524Y-62311961D02*
X144511905Y-62216723D01*
X144511905Y-62216723D02*
X144464286Y-62026247D01*
X144464286Y-62026247D02*
X144464286Y-61883390D01*
X144464286Y-61883390D02*
X144511905Y-61692914D01*
X144511905Y-61692914D02*
X144559524Y-61597676D01*
X144559524Y-61597676D02*
X144654762Y-61502438D01*
X144654762Y-61502438D02*
X144797619Y-61454819D01*
X144797619Y-61454819D02*
X144892857Y-61454819D01*
X144892857Y-61454819D02*
X145035714Y-61502438D01*
X145035714Y-61502438D02*
X145083333Y-61550057D01*
X145940476Y-61454819D02*
X145750000Y-61454819D01*
X145750000Y-61454819D02*
X145654762Y-61502438D01*
X145654762Y-61502438D02*
X145607143Y-61550057D01*
X145607143Y-61550057D02*
X145511905Y-61692914D01*
X145511905Y-61692914D02*
X145464286Y-61883390D01*
X145464286Y-61883390D02*
X145464286Y-62264342D01*
X145464286Y-62264342D02*
X145511905Y-62359580D01*
X145511905Y-62359580D02*
X145559524Y-62407200D01*
X145559524Y-62407200D02*
X145654762Y-62454819D01*
X145654762Y-62454819D02*
X145845238Y-62454819D01*
X145845238Y-62454819D02*
X145940476Y-62407200D01*
X145940476Y-62407200D02*
X145988095Y-62359580D01*
X145988095Y-62359580D02*
X146035714Y-62264342D01*
X146035714Y-62264342D02*
X146035714Y-62026247D01*
X146035714Y-62026247D02*
X145988095Y-61931009D01*
X145988095Y-61931009D02*
X145940476Y-61883390D01*
X145940476Y-61883390D02*
X145845238Y-61835771D01*
X145845238Y-61835771D02*
X145654762Y-61835771D01*
X145654762Y-61835771D02*
X145559524Y-61883390D01*
X145559524Y-61883390D02*
X145511905Y-61931009D01*
X145511905Y-61931009D02*
X145464286Y-62026247D01*
X37954819Y-82166666D02*
X37478628Y-82499999D01*
X37954819Y-82738094D02*
X36954819Y-82738094D01*
X36954819Y-82738094D02*
X36954819Y-82357142D01*
X36954819Y-82357142D02*
X37002438Y-82261904D01*
X37002438Y-82261904D02*
X37050057Y-82214285D01*
X37050057Y-82214285D02*
X37145295Y-82166666D01*
X37145295Y-82166666D02*
X37288152Y-82166666D01*
X37288152Y-82166666D02*
X37383390Y-82214285D01*
X37383390Y-82214285D02*
X37431009Y-82261904D01*
X37431009Y-82261904D02*
X37478628Y-82357142D01*
X37478628Y-82357142D02*
X37478628Y-82738094D01*
X36954819Y-81833332D02*
X36954819Y-81166666D01*
X36954819Y-81166666D02*
X37954819Y-81595237D01*
X74714761Y-71490057D02*
X74619523Y-71442438D01*
X74619523Y-71442438D02*
X74524285Y-71347200D01*
X74524285Y-71347200D02*
X74381428Y-71204342D01*
X74381428Y-71204342D02*
X74286190Y-71156723D01*
X74286190Y-71156723D02*
X74190952Y-71156723D01*
X74238571Y-71394819D02*
X74143333Y-71347200D01*
X74143333Y-71347200D02*
X74048095Y-71251961D01*
X74048095Y-71251961D02*
X74000476Y-71061485D01*
X74000476Y-71061485D02*
X74000476Y-70728152D01*
X74000476Y-70728152D02*
X74048095Y-70537676D01*
X74048095Y-70537676D02*
X74143333Y-70442438D01*
X74143333Y-70442438D02*
X74238571Y-70394819D01*
X74238571Y-70394819D02*
X74429047Y-70394819D01*
X74429047Y-70394819D02*
X74524285Y-70442438D01*
X74524285Y-70442438D02*
X74619523Y-70537676D01*
X74619523Y-70537676D02*
X74667142Y-70728152D01*
X74667142Y-70728152D02*
X74667142Y-71061485D01*
X74667142Y-71061485D02*
X74619523Y-71251961D01*
X74619523Y-71251961D02*
X74524285Y-71347200D01*
X74524285Y-71347200D02*
X74429047Y-71394819D01*
X74429047Y-71394819D02*
X74238571Y-71394819D01*
X75524285Y-70728152D02*
X75524285Y-71394819D01*
X75286190Y-70347200D02*
X75048095Y-71061485D01*
X75048095Y-71061485D02*
X75667142Y-71061485D01*
X72081857Y-73038871D02*
X71781857Y-73038871D01*
X71653285Y-72567442D02*
X72081857Y-72567442D01*
X72081857Y-72567442D02*
X72081857Y-73467442D01*
X72081857Y-73467442D02*
X71653285Y-73467442D01*
X74745714Y-73038871D02*
X74617142Y-72996014D01*
X74617142Y-72996014D02*
X74574285Y-72953157D01*
X74574285Y-72953157D02*
X74531428Y-72867442D01*
X74531428Y-72867442D02*
X74531428Y-72738871D01*
X74531428Y-72738871D02*
X74574285Y-72653157D01*
X74574285Y-72653157D02*
X74617142Y-72610300D01*
X74617142Y-72610300D02*
X74702857Y-72567442D01*
X74702857Y-72567442D02*
X75045714Y-72567442D01*
X75045714Y-72567442D02*
X75045714Y-73467442D01*
X75045714Y-73467442D02*
X74745714Y-73467442D01*
X74745714Y-73467442D02*
X74660000Y-73424585D01*
X74660000Y-73424585D02*
X74617142Y-73381728D01*
X74617142Y-73381728D02*
X74574285Y-73296014D01*
X74574285Y-73296014D02*
X74574285Y-73210300D01*
X74574285Y-73210300D02*
X74617142Y-73124585D01*
X74617142Y-73124585D02*
X74660000Y-73081728D01*
X74660000Y-73081728D02*
X74745714Y-73038871D01*
X74745714Y-73038871D02*
X75045714Y-73038871D01*
X77452428Y-72653157D02*
X77495285Y-72610300D01*
X77495285Y-72610300D02*
X77623857Y-72567442D01*
X77623857Y-72567442D02*
X77709571Y-72567442D01*
X77709571Y-72567442D02*
X77838142Y-72610300D01*
X77838142Y-72610300D02*
X77923857Y-72696014D01*
X77923857Y-72696014D02*
X77966714Y-72781728D01*
X77966714Y-72781728D02*
X78009571Y-72953157D01*
X78009571Y-72953157D02*
X78009571Y-73081728D01*
X78009571Y-73081728D02*
X77966714Y-73253157D01*
X77966714Y-73253157D02*
X77923857Y-73338871D01*
X77923857Y-73338871D02*
X77838142Y-73424585D01*
X77838142Y-73424585D02*
X77709571Y-73467442D01*
X77709571Y-73467442D02*
X77623857Y-73467442D01*
X77623857Y-73467442D02*
X77495285Y-73424585D01*
X77495285Y-73424585D02*
X77452428Y-73381728D01*
X84761905Y-59984819D02*
X84761905Y-58984819D01*
X84761905Y-58984819D02*
X85000000Y-58984819D01*
X85000000Y-58984819D02*
X85142857Y-59032438D01*
X85142857Y-59032438D02*
X85238095Y-59127676D01*
X85238095Y-59127676D02*
X85285714Y-59222914D01*
X85285714Y-59222914D02*
X85333333Y-59413390D01*
X85333333Y-59413390D02*
X85333333Y-59556247D01*
X85333333Y-59556247D02*
X85285714Y-59746723D01*
X85285714Y-59746723D02*
X85238095Y-59841961D01*
X85238095Y-59841961D02*
X85142857Y-59937200D01*
X85142857Y-59937200D02*
X85000000Y-59984819D01*
X85000000Y-59984819D02*
X84761905Y-59984819D01*
X85666667Y-58984819D02*
X86285714Y-58984819D01*
X86285714Y-58984819D02*
X85952381Y-59365771D01*
X85952381Y-59365771D02*
X86095238Y-59365771D01*
X86095238Y-59365771D02*
X86190476Y-59413390D01*
X86190476Y-59413390D02*
X86238095Y-59461009D01*
X86238095Y-59461009D02*
X86285714Y-59556247D01*
X86285714Y-59556247D02*
X86285714Y-59794342D01*
X86285714Y-59794342D02*
X86238095Y-59889580D01*
X86238095Y-59889580D02*
X86190476Y-59937200D01*
X86190476Y-59937200D02*
X86095238Y-59984819D01*
X86095238Y-59984819D02*
X85809524Y-59984819D01*
X85809524Y-59984819D02*
X85714286Y-59937200D01*
X85714286Y-59937200D02*
X85666667Y-59889580D01*
X81428095Y-60354819D02*
X81428095Y-59354819D01*
X81999523Y-60354819D02*
X81570952Y-59783390D01*
X81999523Y-59354819D02*
X81428095Y-59926247D01*
X85071905Y-47484819D02*
X85071905Y-46484819D01*
X85071905Y-46484819D02*
X85310000Y-46484819D01*
X85310000Y-46484819D02*
X85452857Y-46532438D01*
X85452857Y-46532438D02*
X85548095Y-46627676D01*
X85548095Y-46627676D02*
X85595714Y-46722914D01*
X85595714Y-46722914D02*
X85643333Y-46913390D01*
X85643333Y-46913390D02*
X85643333Y-47056247D01*
X85643333Y-47056247D02*
X85595714Y-47246723D01*
X85595714Y-47246723D02*
X85548095Y-47341961D01*
X85548095Y-47341961D02*
X85452857Y-47437200D01*
X85452857Y-47437200D02*
X85310000Y-47484819D01*
X85310000Y-47484819D02*
X85071905Y-47484819D01*
X86024286Y-46580057D02*
X86071905Y-46532438D01*
X86071905Y-46532438D02*
X86167143Y-46484819D01*
X86167143Y-46484819D02*
X86405238Y-46484819D01*
X86405238Y-46484819D02*
X86500476Y-46532438D01*
X86500476Y-46532438D02*
X86548095Y-46580057D01*
X86548095Y-46580057D02*
X86595714Y-46675295D01*
X86595714Y-46675295D02*
X86595714Y-46770533D01*
X86595714Y-46770533D02*
X86548095Y-46913390D01*
X86548095Y-46913390D02*
X85976667Y-47484819D01*
X85976667Y-47484819D02*
X86595714Y-47484819D01*
X81738095Y-47854819D02*
X81738095Y-46854819D01*
X82309523Y-47854819D02*
X81880952Y-47283390D01*
X82309523Y-46854819D02*
X81738095Y-47426247D01*
X74754761Y-83990057D02*
X74659523Y-83942438D01*
X74659523Y-83942438D02*
X74564285Y-83847200D01*
X74564285Y-83847200D02*
X74421428Y-83704342D01*
X74421428Y-83704342D02*
X74326190Y-83656723D01*
X74326190Y-83656723D02*
X74230952Y-83656723D01*
X74278571Y-83894819D02*
X74183333Y-83847200D01*
X74183333Y-83847200D02*
X74088095Y-83751961D01*
X74088095Y-83751961D02*
X74040476Y-83561485D01*
X74040476Y-83561485D02*
X74040476Y-83228152D01*
X74040476Y-83228152D02*
X74088095Y-83037676D01*
X74088095Y-83037676D02*
X74183333Y-82942438D01*
X74183333Y-82942438D02*
X74278571Y-82894819D01*
X74278571Y-82894819D02*
X74469047Y-82894819D01*
X74469047Y-82894819D02*
X74564285Y-82942438D01*
X74564285Y-82942438D02*
X74659523Y-83037676D01*
X74659523Y-83037676D02*
X74707142Y-83228152D01*
X74707142Y-83228152D02*
X74707142Y-83561485D01*
X74707142Y-83561485D02*
X74659523Y-83751961D01*
X74659523Y-83751961D02*
X74564285Y-83847200D01*
X74564285Y-83847200D02*
X74469047Y-83894819D01*
X74469047Y-83894819D02*
X74278571Y-83894819D01*
X75611904Y-82894819D02*
X75135714Y-82894819D01*
X75135714Y-82894819D02*
X75088095Y-83371009D01*
X75088095Y-83371009D02*
X75135714Y-83323390D01*
X75135714Y-83323390D02*
X75230952Y-83275771D01*
X75230952Y-83275771D02*
X75469047Y-83275771D01*
X75469047Y-83275771D02*
X75564285Y-83323390D01*
X75564285Y-83323390D02*
X75611904Y-83371009D01*
X75611904Y-83371009D02*
X75659523Y-83466247D01*
X75659523Y-83466247D02*
X75659523Y-83704342D01*
X75659523Y-83704342D02*
X75611904Y-83799580D01*
X75611904Y-83799580D02*
X75564285Y-83847200D01*
X75564285Y-83847200D02*
X75469047Y-83894819D01*
X75469047Y-83894819D02*
X75230952Y-83894819D01*
X75230952Y-83894819D02*
X75135714Y-83847200D01*
X75135714Y-83847200D02*
X75088095Y-83799580D01*
X77492428Y-85153157D02*
X77535285Y-85110300D01*
X77535285Y-85110300D02*
X77663857Y-85067442D01*
X77663857Y-85067442D02*
X77749571Y-85067442D01*
X77749571Y-85067442D02*
X77878142Y-85110300D01*
X77878142Y-85110300D02*
X77963857Y-85196014D01*
X77963857Y-85196014D02*
X78006714Y-85281728D01*
X78006714Y-85281728D02*
X78049571Y-85453157D01*
X78049571Y-85453157D02*
X78049571Y-85581728D01*
X78049571Y-85581728D02*
X78006714Y-85753157D01*
X78006714Y-85753157D02*
X77963857Y-85838871D01*
X77963857Y-85838871D02*
X77878142Y-85924585D01*
X77878142Y-85924585D02*
X77749571Y-85967442D01*
X77749571Y-85967442D02*
X77663857Y-85967442D01*
X77663857Y-85967442D02*
X77535285Y-85924585D01*
X77535285Y-85924585D02*
X77492428Y-85881728D01*
X72121857Y-85538871D02*
X71821857Y-85538871D01*
X71693285Y-85067442D02*
X72121857Y-85067442D01*
X72121857Y-85067442D02*
X72121857Y-85967442D01*
X72121857Y-85967442D02*
X71693285Y-85967442D01*
X74785714Y-85538871D02*
X74657142Y-85496014D01*
X74657142Y-85496014D02*
X74614285Y-85453157D01*
X74614285Y-85453157D02*
X74571428Y-85367442D01*
X74571428Y-85367442D02*
X74571428Y-85238871D01*
X74571428Y-85238871D02*
X74614285Y-85153157D01*
X74614285Y-85153157D02*
X74657142Y-85110300D01*
X74657142Y-85110300D02*
X74742857Y-85067442D01*
X74742857Y-85067442D02*
X75085714Y-85067442D01*
X75085714Y-85067442D02*
X75085714Y-85967442D01*
X75085714Y-85967442D02*
X74785714Y-85967442D01*
X74785714Y-85967442D02*
X74700000Y-85924585D01*
X74700000Y-85924585D02*
X74657142Y-85881728D01*
X74657142Y-85881728D02*
X74614285Y-85796014D01*
X74614285Y-85796014D02*
X74614285Y-85710300D01*
X74614285Y-85710300D02*
X74657142Y-85624585D01*
X74657142Y-85624585D02*
X74700000Y-85581728D01*
X74700000Y-85581728D02*
X74785714Y-85538871D01*
X74785714Y-85538871D02*
X75085714Y-85538871D01*
X51361905Y-81294819D02*
X51361905Y-80294819D01*
X51933333Y-81294819D02*
X51504762Y-80723390D01*
X51933333Y-80294819D02*
X51361905Y-80866247D01*
X52838095Y-80294819D02*
X52361905Y-80294819D01*
X52361905Y-80294819D02*
X52314286Y-80771009D01*
X52314286Y-80771009D02*
X52361905Y-80723390D01*
X52361905Y-80723390D02*
X52457143Y-80675771D01*
X52457143Y-80675771D02*
X52695238Y-80675771D01*
X52695238Y-80675771D02*
X52790476Y-80723390D01*
X52790476Y-80723390D02*
X52838095Y-80771009D01*
X52838095Y-80771009D02*
X52885714Y-80866247D01*
X52885714Y-80866247D02*
X52885714Y-81104342D01*
X52885714Y-81104342D02*
X52838095Y-81199580D01*
X52838095Y-81199580D02*
X52790476Y-81247200D01*
X52790476Y-81247200D02*
X52695238Y-81294819D01*
X52695238Y-81294819D02*
X52457143Y-81294819D01*
X52457143Y-81294819D02*
X52361905Y-81247200D01*
X52361905Y-81247200D02*
X52314286Y-81199580D01*
X79643333Y-40584819D02*
X79310000Y-40108628D01*
X79071905Y-40584819D02*
X79071905Y-39584819D01*
X79071905Y-39584819D02*
X79452857Y-39584819D01*
X79452857Y-39584819D02*
X79548095Y-39632438D01*
X79548095Y-39632438D02*
X79595714Y-39680057D01*
X79595714Y-39680057D02*
X79643333Y-39775295D01*
X79643333Y-39775295D02*
X79643333Y-39918152D01*
X79643333Y-39918152D02*
X79595714Y-40013390D01*
X79595714Y-40013390D02*
X79548095Y-40061009D01*
X79548095Y-40061009D02*
X79452857Y-40108628D01*
X79452857Y-40108628D02*
X79071905Y-40108628D01*
X80595714Y-40584819D02*
X80024286Y-40584819D01*
X80310000Y-40584819D02*
X80310000Y-39584819D01*
X80310000Y-39584819D02*
X80214762Y-39727676D01*
X80214762Y-39727676D02*
X80119524Y-39822914D01*
X80119524Y-39822914D02*
X80024286Y-39870533D01*
X117283243Y-83554104D02*
X117759433Y-83554104D01*
X117188005Y-83839819D02*
X117521338Y-82839819D01*
X117521338Y-82839819D02*
X117854671Y-83839819D01*
X118711814Y-83839819D02*
X118140386Y-83839819D01*
X118426100Y-83839819D02*
X118426100Y-82839819D01*
X118426100Y-82839819D02*
X118330862Y-82982676D01*
X118330862Y-82982676D02*
X118235624Y-83077914D01*
X118235624Y-83077914D02*
X118140386Y-83125533D01*
X84571905Y-85984819D02*
X84571905Y-84984819D01*
X84571905Y-84984819D02*
X84810000Y-84984819D01*
X84810000Y-84984819D02*
X84952857Y-85032438D01*
X84952857Y-85032438D02*
X85048095Y-85127676D01*
X85048095Y-85127676D02*
X85095714Y-85222914D01*
X85095714Y-85222914D02*
X85143333Y-85413390D01*
X85143333Y-85413390D02*
X85143333Y-85556247D01*
X85143333Y-85556247D02*
X85095714Y-85746723D01*
X85095714Y-85746723D02*
X85048095Y-85841961D01*
X85048095Y-85841961D02*
X84952857Y-85937200D01*
X84952857Y-85937200D02*
X84810000Y-85984819D01*
X84810000Y-85984819D02*
X84571905Y-85984819D01*
X86048095Y-84984819D02*
X85571905Y-84984819D01*
X85571905Y-84984819D02*
X85524286Y-85461009D01*
X85524286Y-85461009D02*
X85571905Y-85413390D01*
X85571905Y-85413390D02*
X85667143Y-85365771D01*
X85667143Y-85365771D02*
X85905238Y-85365771D01*
X85905238Y-85365771D02*
X86000476Y-85413390D01*
X86000476Y-85413390D02*
X86048095Y-85461009D01*
X86048095Y-85461009D02*
X86095714Y-85556247D01*
X86095714Y-85556247D02*
X86095714Y-85794342D01*
X86095714Y-85794342D02*
X86048095Y-85889580D01*
X86048095Y-85889580D02*
X86000476Y-85937200D01*
X86000476Y-85937200D02*
X85905238Y-85984819D01*
X85905238Y-85984819D02*
X85667143Y-85984819D01*
X85667143Y-85984819D02*
X85571905Y-85937200D01*
X85571905Y-85937200D02*
X85524286Y-85889580D01*
X81238095Y-86354819D02*
X81238095Y-85354819D01*
X81809523Y-86354819D02*
X81380952Y-85783390D01*
X81809523Y-85354819D02*
X81238095Y-85926247D01*
X51361905Y-43644819D02*
X51361905Y-42644819D01*
X51933333Y-43644819D02*
X51504762Y-43073390D01*
X51933333Y-42644819D02*
X51361905Y-43216247D01*
X52314286Y-42740057D02*
X52361905Y-42692438D01*
X52361905Y-42692438D02*
X52457143Y-42644819D01*
X52457143Y-42644819D02*
X52695238Y-42644819D01*
X52695238Y-42644819D02*
X52790476Y-42692438D01*
X52790476Y-42692438D02*
X52838095Y-42740057D01*
X52838095Y-42740057D02*
X52885714Y-42835295D01*
X52885714Y-42835295D02*
X52885714Y-42930533D01*
X52885714Y-42930533D02*
X52838095Y-43073390D01*
X52838095Y-43073390D02*
X52266667Y-43644819D01*
X52266667Y-43644819D02*
X52885714Y-43644819D01*
X71833333Y-103084819D02*
X71500000Y-102608628D01*
X71261905Y-103084819D02*
X71261905Y-102084819D01*
X71261905Y-102084819D02*
X71642857Y-102084819D01*
X71642857Y-102084819D02*
X71738095Y-102132438D01*
X71738095Y-102132438D02*
X71785714Y-102180057D01*
X71785714Y-102180057D02*
X71833333Y-102275295D01*
X71833333Y-102275295D02*
X71833333Y-102418152D01*
X71833333Y-102418152D02*
X71785714Y-102513390D01*
X71785714Y-102513390D02*
X71738095Y-102561009D01*
X71738095Y-102561009D02*
X71642857Y-102608628D01*
X71642857Y-102608628D02*
X71261905Y-102608628D01*
X72690476Y-102084819D02*
X72500000Y-102084819D01*
X72500000Y-102084819D02*
X72404762Y-102132438D01*
X72404762Y-102132438D02*
X72357143Y-102180057D01*
X72357143Y-102180057D02*
X72261905Y-102322914D01*
X72261905Y-102322914D02*
X72214286Y-102513390D01*
X72214286Y-102513390D02*
X72214286Y-102894342D01*
X72214286Y-102894342D02*
X72261905Y-102989580D01*
X72261905Y-102989580D02*
X72309524Y-103037200D01*
X72309524Y-103037200D02*
X72404762Y-103084819D01*
X72404762Y-103084819D02*
X72595238Y-103084819D01*
X72595238Y-103084819D02*
X72690476Y-103037200D01*
X72690476Y-103037200D02*
X72738095Y-102989580D01*
X72738095Y-102989580D02*
X72785714Y-102894342D01*
X72785714Y-102894342D02*
X72785714Y-102656247D01*
X72785714Y-102656247D02*
X72738095Y-102561009D01*
X72738095Y-102561009D02*
X72690476Y-102513390D01*
X72690476Y-102513390D02*
X72595238Y-102465771D01*
X72595238Y-102465771D02*
X72404762Y-102465771D01*
X72404762Y-102465771D02*
X72309524Y-102513390D01*
X72309524Y-102513390D02*
X72261905Y-102561009D01*
X72261905Y-102561009D02*
X72214286Y-102656247D01*
X79563333Y-90584819D02*
X79230000Y-90108628D01*
X78991905Y-90584819D02*
X78991905Y-89584819D01*
X78991905Y-89584819D02*
X79372857Y-89584819D01*
X79372857Y-89584819D02*
X79468095Y-89632438D01*
X79468095Y-89632438D02*
X79515714Y-89680057D01*
X79515714Y-89680057D02*
X79563333Y-89775295D01*
X79563333Y-89775295D02*
X79563333Y-89918152D01*
X79563333Y-89918152D02*
X79515714Y-90013390D01*
X79515714Y-90013390D02*
X79468095Y-90061009D01*
X79468095Y-90061009D02*
X79372857Y-90108628D01*
X79372857Y-90108628D02*
X78991905Y-90108628D01*
X80468095Y-89584819D02*
X79991905Y-89584819D01*
X79991905Y-89584819D02*
X79944286Y-90061009D01*
X79944286Y-90061009D02*
X79991905Y-90013390D01*
X79991905Y-90013390D02*
X80087143Y-89965771D01*
X80087143Y-89965771D02*
X80325238Y-89965771D01*
X80325238Y-89965771D02*
X80420476Y-90013390D01*
X80420476Y-90013390D02*
X80468095Y-90061009D01*
X80468095Y-90061009D02*
X80515714Y-90156247D01*
X80515714Y-90156247D02*
X80515714Y-90394342D01*
X80515714Y-90394342D02*
X80468095Y-90489580D01*
X80468095Y-90489580D02*
X80420476Y-90537200D01*
X80420476Y-90537200D02*
X80325238Y-90584819D01*
X80325238Y-90584819D02*
X80087143Y-90584819D01*
X80087143Y-90584819D02*
X79991905Y-90537200D01*
X79991905Y-90537200D02*
X79944286Y-90489580D01*
X79643333Y-66084819D02*
X79310000Y-65608628D01*
X79071905Y-66084819D02*
X79071905Y-65084819D01*
X79071905Y-65084819D02*
X79452857Y-65084819D01*
X79452857Y-65084819D02*
X79548095Y-65132438D01*
X79548095Y-65132438D02*
X79595714Y-65180057D01*
X79595714Y-65180057D02*
X79643333Y-65275295D01*
X79643333Y-65275295D02*
X79643333Y-65418152D01*
X79643333Y-65418152D02*
X79595714Y-65513390D01*
X79595714Y-65513390D02*
X79548095Y-65561009D01*
X79548095Y-65561009D02*
X79452857Y-65608628D01*
X79452857Y-65608628D02*
X79071905Y-65608628D01*
X79976667Y-65084819D02*
X80595714Y-65084819D01*
X80595714Y-65084819D02*
X80262381Y-65465771D01*
X80262381Y-65465771D02*
X80405238Y-65465771D01*
X80405238Y-65465771D02*
X80500476Y-65513390D01*
X80500476Y-65513390D02*
X80548095Y-65561009D01*
X80548095Y-65561009D02*
X80595714Y-65656247D01*
X80595714Y-65656247D02*
X80595714Y-65894342D01*
X80595714Y-65894342D02*
X80548095Y-65989580D01*
X80548095Y-65989580D02*
X80500476Y-66037200D01*
X80500476Y-66037200D02*
X80405238Y-66084819D01*
X80405238Y-66084819D02*
X80119524Y-66084819D01*
X80119524Y-66084819D02*
X80024286Y-66037200D01*
X80024286Y-66037200D02*
X79976667Y-65989580D01*
X86583333Y-112109580D02*
X86535714Y-112157200D01*
X86535714Y-112157200D02*
X86392857Y-112204819D01*
X86392857Y-112204819D02*
X86297619Y-112204819D01*
X86297619Y-112204819D02*
X86154762Y-112157200D01*
X86154762Y-112157200D02*
X86059524Y-112061961D01*
X86059524Y-112061961D02*
X86011905Y-111966723D01*
X86011905Y-111966723D02*
X85964286Y-111776247D01*
X85964286Y-111776247D02*
X85964286Y-111633390D01*
X85964286Y-111633390D02*
X86011905Y-111442914D01*
X86011905Y-111442914D02*
X86059524Y-111347676D01*
X86059524Y-111347676D02*
X86154762Y-111252438D01*
X86154762Y-111252438D02*
X86297619Y-111204819D01*
X86297619Y-111204819D02*
X86392857Y-111204819D01*
X86392857Y-111204819D02*
X86535714Y-111252438D01*
X86535714Y-111252438D02*
X86583333Y-111300057D01*
X87154762Y-111633390D02*
X87059524Y-111585771D01*
X87059524Y-111585771D02*
X87011905Y-111538152D01*
X87011905Y-111538152D02*
X86964286Y-111442914D01*
X86964286Y-111442914D02*
X86964286Y-111395295D01*
X86964286Y-111395295D02*
X87011905Y-111300057D01*
X87011905Y-111300057D02*
X87059524Y-111252438D01*
X87059524Y-111252438D02*
X87154762Y-111204819D01*
X87154762Y-111204819D02*
X87345238Y-111204819D01*
X87345238Y-111204819D02*
X87440476Y-111252438D01*
X87440476Y-111252438D02*
X87488095Y-111300057D01*
X87488095Y-111300057D02*
X87535714Y-111395295D01*
X87535714Y-111395295D02*
X87535714Y-111442914D01*
X87535714Y-111442914D02*
X87488095Y-111538152D01*
X87488095Y-111538152D02*
X87440476Y-111585771D01*
X87440476Y-111585771D02*
X87345238Y-111633390D01*
X87345238Y-111633390D02*
X87154762Y-111633390D01*
X87154762Y-111633390D02*
X87059524Y-111681009D01*
X87059524Y-111681009D02*
X87011905Y-111728628D01*
X87011905Y-111728628D02*
X86964286Y-111823866D01*
X86964286Y-111823866D02*
X86964286Y-112014342D01*
X86964286Y-112014342D02*
X87011905Y-112109580D01*
X87011905Y-112109580D02*
X87059524Y-112157200D01*
X87059524Y-112157200D02*
X87154762Y-112204819D01*
X87154762Y-112204819D02*
X87345238Y-112204819D01*
X87345238Y-112204819D02*
X87440476Y-112157200D01*
X87440476Y-112157200D02*
X87488095Y-112109580D01*
X87488095Y-112109580D02*
X87535714Y-112014342D01*
X87535714Y-112014342D02*
X87535714Y-111823866D01*
X87535714Y-111823866D02*
X87488095Y-111728628D01*
X87488095Y-111728628D02*
X87440476Y-111681009D01*
X87440476Y-111681009D02*
X87345238Y-111633390D01*
X144386905Y-101504819D02*
X144386905Y-100504819D01*
X144386905Y-100504819D02*
X144625000Y-100504819D01*
X144625000Y-100504819D02*
X144767857Y-100552438D01*
X144767857Y-100552438D02*
X144863095Y-100647676D01*
X144863095Y-100647676D02*
X144910714Y-100742914D01*
X144910714Y-100742914D02*
X144958333Y-100933390D01*
X144958333Y-100933390D02*
X144958333Y-101076247D01*
X144958333Y-101076247D02*
X144910714Y-101266723D01*
X144910714Y-101266723D02*
X144863095Y-101361961D01*
X144863095Y-101361961D02*
X144767857Y-101457200D01*
X144767857Y-101457200D02*
X144625000Y-101504819D01*
X144625000Y-101504819D02*
X144386905Y-101504819D01*
X145291667Y-100504819D02*
X145958333Y-100504819D01*
X145958333Y-100504819D02*
X145529762Y-101504819D01*
X138999048Y-106309866D02*
X139760953Y-106309866D01*
X139380000Y-106690819D02*
X139380000Y-105928914D01*
X150429048Y-106309866D02*
X151190953Y-106309866D01*
X146241905Y-106869104D02*
X146718095Y-106869104D01*
X146146667Y-107154819D02*
X146480000Y-106154819D01*
X146480000Y-106154819D02*
X146813333Y-107154819D01*
X147718095Y-107059580D02*
X147670476Y-107107200D01*
X147670476Y-107107200D02*
X147527619Y-107154819D01*
X147527619Y-107154819D02*
X147432381Y-107154819D01*
X147432381Y-107154819D02*
X147289524Y-107107200D01*
X147289524Y-107107200D02*
X147194286Y-107011961D01*
X147194286Y-107011961D02*
X147146667Y-106916723D01*
X147146667Y-106916723D02*
X147099048Y-106726247D01*
X147099048Y-106726247D02*
X147099048Y-106583390D01*
X147099048Y-106583390D02*
X147146667Y-106392914D01*
X147146667Y-106392914D02*
X147194286Y-106297676D01*
X147194286Y-106297676D02*
X147289524Y-106202438D01*
X147289524Y-106202438D02*
X147432381Y-106154819D01*
X147432381Y-106154819D02*
X147527619Y-106154819D01*
X147527619Y-106154819D02*
X147670476Y-106202438D01*
X147670476Y-106202438D02*
X147718095Y-106250057D01*
X142441905Y-106869104D02*
X142918095Y-106869104D01*
X142346667Y-107154819D02*
X142680000Y-106154819D01*
X142680000Y-106154819D02*
X143013333Y-107154819D01*
X143918095Y-107059580D02*
X143870476Y-107107200D01*
X143870476Y-107107200D02*
X143727619Y-107154819D01*
X143727619Y-107154819D02*
X143632381Y-107154819D01*
X143632381Y-107154819D02*
X143489524Y-107107200D01*
X143489524Y-107107200D02*
X143394286Y-107011961D01*
X143394286Y-107011961D02*
X143346667Y-106916723D01*
X143346667Y-106916723D02*
X143299048Y-106726247D01*
X143299048Y-106726247D02*
X143299048Y-106583390D01*
X143299048Y-106583390D02*
X143346667Y-106392914D01*
X143346667Y-106392914D02*
X143394286Y-106297676D01*
X143394286Y-106297676D02*
X143489524Y-106202438D01*
X143489524Y-106202438D02*
X143632381Y-106154819D01*
X143632381Y-106154819D02*
X143727619Y-106154819D01*
X143727619Y-106154819D02*
X143870476Y-106202438D01*
X143870476Y-106202438D02*
X143918095Y-106250057D01*
X127663095Y-100029819D02*
X127663095Y-100839342D01*
X127663095Y-100839342D02*
X127710714Y-100934580D01*
X127710714Y-100934580D02*
X127758333Y-100982200D01*
X127758333Y-100982200D02*
X127853571Y-101029819D01*
X127853571Y-101029819D02*
X128044047Y-101029819D01*
X128044047Y-101029819D02*
X128139285Y-100982200D01*
X128139285Y-100982200D02*
X128186904Y-100934580D01*
X128186904Y-100934580D02*
X128234523Y-100839342D01*
X128234523Y-100839342D02*
X128234523Y-100029819D01*
X128663095Y-100125057D02*
X128710714Y-100077438D01*
X128710714Y-100077438D02*
X128805952Y-100029819D01*
X128805952Y-100029819D02*
X129044047Y-100029819D01*
X129044047Y-100029819D02*
X129139285Y-100077438D01*
X129139285Y-100077438D02*
X129186904Y-100125057D01*
X129186904Y-100125057D02*
X129234523Y-100220295D01*
X129234523Y-100220295D02*
X129234523Y-100315533D01*
X129234523Y-100315533D02*
X129186904Y-100458390D01*
X129186904Y-100458390D02*
X128615476Y-101029819D01*
X128615476Y-101029819D02*
X129234523Y-101029819D01*
X74714761Y-33990057D02*
X74619523Y-33942438D01*
X74619523Y-33942438D02*
X74524285Y-33847200D01*
X74524285Y-33847200D02*
X74381428Y-33704342D01*
X74381428Y-33704342D02*
X74286190Y-33656723D01*
X74286190Y-33656723D02*
X74190952Y-33656723D01*
X74238571Y-33894819D02*
X74143333Y-33847200D01*
X74143333Y-33847200D02*
X74048095Y-33751961D01*
X74048095Y-33751961D02*
X74000476Y-33561485D01*
X74000476Y-33561485D02*
X74000476Y-33228152D01*
X74000476Y-33228152D02*
X74048095Y-33037676D01*
X74048095Y-33037676D02*
X74143333Y-32942438D01*
X74143333Y-32942438D02*
X74238571Y-32894819D01*
X74238571Y-32894819D02*
X74429047Y-32894819D01*
X74429047Y-32894819D02*
X74524285Y-32942438D01*
X74524285Y-32942438D02*
X74619523Y-33037676D01*
X74619523Y-33037676D02*
X74667142Y-33228152D01*
X74667142Y-33228152D02*
X74667142Y-33561485D01*
X74667142Y-33561485D02*
X74619523Y-33751961D01*
X74619523Y-33751961D02*
X74524285Y-33847200D01*
X74524285Y-33847200D02*
X74429047Y-33894819D01*
X74429047Y-33894819D02*
X74238571Y-33894819D01*
X75619523Y-33894819D02*
X75048095Y-33894819D01*
X75333809Y-33894819D02*
X75333809Y-32894819D01*
X75333809Y-32894819D02*
X75238571Y-33037676D01*
X75238571Y-33037676D02*
X75143333Y-33132914D01*
X75143333Y-33132914D02*
X75048095Y-33180533D01*
X77452428Y-35153157D02*
X77495285Y-35110300D01*
X77495285Y-35110300D02*
X77623857Y-35067442D01*
X77623857Y-35067442D02*
X77709571Y-35067442D01*
X77709571Y-35067442D02*
X77838142Y-35110300D01*
X77838142Y-35110300D02*
X77923857Y-35196014D01*
X77923857Y-35196014D02*
X77966714Y-35281728D01*
X77966714Y-35281728D02*
X78009571Y-35453157D01*
X78009571Y-35453157D02*
X78009571Y-35581728D01*
X78009571Y-35581728D02*
X77966714Y-35753157D01*
X77966714Y-35753157D02*
X77923857Y-35838871D01*
X77923857Y-35838871D02*
X77838142Y-35924585D01*
X77838142Y-35924585D02*
X77709571Y-35967442D01*
X77709571Y-35967442D02*
X77623857Y-35967442D01*
X77623857Y-35967442D02*
X77495285Y-35924585D01*
X77495285Y-35924585D02*
X77452428Y-35881728D01*
X74745714Y-35538871D02*
X74617142Y-35496014D01*
X74617142Y-35496014D02*
X74574285Y-35453157D01*
X74574285Y-35453157D02*
X74531428Y-35367442D01*
X74531428Y-35367442D02*
X74531428Y-35238871D01*
X74531428Y-35238871D02*
X74574285Y-35153157D01*
X74574285Y-35153157D02*
X74617142Y-35110300D01*
X74617142Y-35110300D02*
X74702857Y-35067442D01*
X74702857Y-35067442D02*
X75045714Y-35067442D01*
X75045714Y-35067442D02*
X75045714Y-35967442D01*
X75045714Y-35967442D02*
X74745714Y-35967442D01*
X74745714Y-35967442D02*
X74660000Y-35924585D01*
X74660000Y-35924585D02*
X74617142Y-35881728D01*
X74617142Y-35881728D02*
X74574285Y-35796014D01*
X74574285Y-35796014D02*
X74574285Y-35710300D01*
X74574285Y-35710300D02*
X74617142Y-35624585D01*
X74617142Y-35624585D02*
X74660000Y-35581728D01*
X74660000Y-35581728D02*
X74745714Y-35538871D01*
X74745714Y-35538871D02*
X75045714Y-35538871D01*
X72081857Y-35538871D02*
X71781857Y-35538871D01*
X71653285Y-35067442D02*
X72081857Y-35067442D01*
X72081857Y-35067442D02*
X72081857Y-35967442D01*
X72081857Y-35967442D02*
X71653285Y-35967442D01*
X85071905Y-34984819D02*
X85071905Y-33984819D01*
X85071905Y-33984819D02*
X85310000Y-33984819D01*
X85310000Y-33984819D02*
X85452857Y-34032438D01*
X85452857Y-34032438D02*
X85548095Y-34127676D01*
X85548095Y-34127676D02*
X85595714Y-34222914D01*
X85595714Y-34222914D02*
X85643333Y-34413390D01*
X85643333Y-34413390D02*
X85643333Y-34556247D01*
X85643333Y-34556247D02*
X85595714Y-34746723D01*
X85595714Y-34746723D02*
X85548095Y-34841961D01*
X85548095Y-34841961D02*
X85452857Y-34937200D01*
X85452857Y-34937200D02*
X85310000Y-34984819D01*
X85310000Y-34984819D02*
X85071905Y-34984819D01*
X86595714Y-34984819D02*
X86024286Y-34984819D01*
X86310000Y-34984819D02*
X86310000Y-33984819D01*
X86310000Y-33984819D02*
X86214762Y-34127676D01*
X86214762Y-34127676D02*
X86119524Y-34222914D01*
X86119524Y-34222914D02*
X86024286Y-34270533D01*
X81738095Y-35354819D02*
X81738095Y-34354819D01*
X82309523Y-35354819D02*
X81880952Y-34783390D01*
X82309523Y-34354819D02*
X81738095Y-34926247D01*
X66904761Y-96490057D02*
X66809523Y-96442438D01*
X66809523Y-96442438D02*
X66714285Y-96347200D01*
X66714285Y-96347200D02*
X66571428Y-96204342D01*
X66571428Y-96204342D02*
X66476190Y-96156723D01*
X66476190Y-96156723D02*
X66380952Y-96156723D01*
X66428571Y-96394819D02*
X66333333Y-96347200D01*
X66333333Y-96347200D02*
X66238095Y-96251961D01*
X66238095Y-96251961D02*
X66190476Y-96061485D01*
X66190476Y-96061485D02*
X66190476Y-95728152D01*
X66190476Y-95728152D02*
X66238095Y-95537676D01*
X66238095Y-95537676D02*
X66333333Y-95442438D01*
X66333333Y-95442438D02*
X66428571Y-95394819D01*
X66428571Y-95394819D02*
X66619047Y-95394819D01*
X66619047Y-95394819D02*
X66714285Y-95442438D01*
X66714285Y-95442438D02*
X66809523Y-95537676D01*
X66809523Y-95537676D02*
X66857142Y-95728152D01*
X66857142Y-95728152D02*
X66857142Y-96061485D01*
X66857142Y-96061485D02*
X66809523Y-96251961D01*
X66809523Y-96251961D02*
X66714285Y-96347200D01*
X66714285Y-96347200D02*
X66619047Y-96394819D01*
X66619047Y-96394819D02*
X66428571Y-96394819D01*
X67714285Y-95394819D02*
X67523809Y-95394819D01*
X67523809Y-95394819D02*
X67428571Y-95442438D01*
X67428571Y-95442438D02*
X67380952Y-95490057D01*
X67380952Y-95490057D02*
X67285714Y-95632914D01*
X67285714Y-95632914D02*
X67238095Y-95823390D01*
X67238095Y-95823390D02*
X67238095Y-96204342D01*
X67238095Y-96204342D02*
X67285714Y-96299580D01*
X67285714Y-96299580D02*
X67333333Y-96347200D01*
X67333333Y-96347200D02*
X67428571Y-96394819D01*
X67428571Y-96394819D02*
X67619047Y-96394819D01*
X67619047Y-96394819D02*
X67714285Y-96347200D01*
X67714285Y-96347200D02*
X67761904Y-96299580D01*
X67761904Y-96299580D02*
X67809523Y-96204342D01*
X67809523Y-96204342D02*
X67809523Y-95966247D01*
X67809523Y-95966247D02*
X67761904Y-95871009D01*
X67761904Y-95871009D02*
X67714285Y-95823390D01*
X67714285Y-95823390D02*
X67619047Y-95775771D01*
X67619047Y-95775771D02*
X67428571Y-95775771D01*
X67428571Y-95775771D02*
X67333333Y-95823390D01*
X67333333Y-95823390D02*
X67285714Y-95871009D01*
X67285714Y-95871009D02*
X67238095Y-95966247D01*
X69642428Y-97653157D02*
X69685285Y-97610300D01*
X69685285Y-97610300D02*
X69813857Y-97567442D01*
X69813857Y-97567442D02*
X69899571Y-97567442D01*
X69899571Y-97567442D02*
X70028142Y-97610300D01*
X70028142Y-97610300D02*
X70113857Y-97696014D01*
X70113857Y-97696014D02*
X70156714Y-97781728D01*
X70156714Y-97781728D02*
X70199571Y-97953157D01*
X70199571Y-97953157D02*
X70199571Y-98081728D01*
X70199571Y-98081728D02*
X70156714Y-98253157D01*
X70156714Y-98253157D02*
X70113857Y-98338871D01*
X70113857Y-98338871D02*
X70028142Y-98424585D01*
X70028142Y-98424585D02*
X69899571Y-98467442D01*
X69899571Y-98467442D02*
X69813857Y-98467442D01*
X69813857Y-98467442D02*
X69685285Y-98424585D01*
X69685285Y-98424585D02*
X69642428Y-98381728D01*
X64271857Y-98038871D02*
X63971857Y-98038871D01*
X63843285Y-97567442D02*
X64271857Y-97567442D01*
X64271857Y-97567442D02*
X64271857Y-98467442D01*
X64271857Y-98467442D02*
X63843285Y-98467442D01*
X66935714Y-98038871D02*
X66807142Y-97996014D01*
X66807142Y-97996014D02*
X66764285Y-97953157D01*
X66764285Y-97953157D02*
X66721428Y-97867442D01*
X66721428Y-97867442D02*
X66721428Y-97738871D01*
X66721428Y-97738871D02*
X66764285Y-97653157D01*
X66764285Y-97653157D02*
X66807142Y-97610300D01*
X66807142Y-97610300D02*
X66892857Y-97567442D01*
X66892857Y-97567442D02*
X67235714Y-97567442D01*
X67235714Y-97567442D02*
X67235714Y-98467442D01*
X67235714Y-98467442D02*
X66935714Y-98467442D01*
X66935714Y-98467442D02*
X66850000Y-98424585D01*
X66850000Y-98424585D02*
X66807142Y-98381728D01*
X66807142Y-98381728D02*
X66764285Y-98296014D01*
X66764285Y-98296014D02*
X66764285Y-98210300D01*
X66764285Y-98210300D02*
X66807142Y-98124585D01*
X66807142Y-98124585D02*
X66850000Y-98081728D01*
X66850000Y-98081728D02*
X66935714Y-98038871D01*
X66935714Y-98038871D02*
X67235714Y-98038871D01*
X32666666Y-67494819D02*
X32666666Y-68209104D01*
X32666666Y-68209104D02*
X32619047Y-68351961D01*
X32619047Y-68351961D02*
X32523809Y-68447200D01*
X32523809Y-68447200D02*
X32380952Y-68494819D01*
X32380952Y-68494819D02*
X32285714Y-68494819D01*
X33047619Y-67494819D02*
X33666666Y-67494819D01*
X33666666Y-67494819D02*
X33333333Y-67875771D01*
X33333333Y-67875771D02*
X33476190Y-67875771D01*
X33476190Y-67875771D02*
X33571428Y-67923390D01*
X33571428Y-67923390D02*
X33619047Y-67971009D01*
X33619047Y-67971009D02*
X33666666Y-68066247D01*
X33666666Y-68066247D02*
X33666666Y-68304342D01*
X33666666Y-68304342D02*
X33619047Y-68399580D01*
X33619047Y-68399580D02*
X33571428Y-68447200D01*
X33571428Y-68447200D02*
X33476190Y-68494819D01*
X33476190Y-68494819D02*
X33190476Y-68494819D01*
X33190476Y-68494819D02*
X33095238Y-68447200D01*
X33095238Y-68447200D02*
X33047619Y-68399580D01*
X76451905Y-97484819D02*
X76451905Y-96484819D01*
X76451905Y-96484819D02*
X76690000Y-96484819D01*
X76690000Y-96484819D02*
X76832857Y-96532438D01*
X76832857Y-96532438D02*
X76928095Y-96627676D01*
X76928095Y-96627676D02*
X76975714Y-96722914D01*
X76975714Y-96722914D02*
X77023333Y-96913390D01*
X77023333Y-96913390D02*
X77023333Y-97056247D01*
X77023333Y-97056247D02*
X76975714Y-97246723D01*
X76975714Y-97246723D02*
X76928095Y-97341961D01*
X76928095Y-97341961D02*
X76832857Y-97437200D01*
X76832857Y-97437200D02*
X76690000Y-97484819D01*
X76690000Y-97484819D02*
X76451905Y-97484819D01*
X77880476Y-96484819D02*
X77690000Y-96484819D01*
X77690000Y-96484819D02*
X77594762Y-96532438D01*
X77594762Y-96532438D02*
X77547143Y-96580057D01*
X77547143Y-96580057D02*
X77451905Y-96722914D01*
X77451905Y-96722914D02*
X77404286Y-96913390D01*
X77404286Y-96913390D02*
X77404286Y-97294342D01*
X77404286Y-97294342D02*
X77451905Y-97389580D01*
X77451905Y-97389580D02*
X77499524Y-97437200D01*
X77499524Y-97437200D02*
X77594762Y-97484819D01*
X77594762Y-97484819D02*
X77785238Y-97484819D01*
X77785238Y-97484819D02*
X77880476Y-97437200D01*
X77880476Y-97437200D02*
X77928095Y-97389580D01*
X77928095Y-97389580D02*
X77975714Y-97294342D01*
X77975714Y-97294342D02*
X77975714Y-97056247D01*
X77975714Y-97056247D02*
X77928095Y-96961009D01*
X77928095Y-96961009D02*
X77880476Y-96913390D01*
X77880476Y-96913390D02*
X77785238Y-96865771D01*
X77785238Y-96865771D02*
X77594762Y-96865771D01*
X77594762Y-96865771D02*
X77499524Y-96913390D01*
X77499524Y-96913390D02*
X77451905Y-96961009D01*
X77451905Y-96961009D02*
X77404286Y-97056247D01*
X73118095Y-97854819D02*
X73118095Y-96854819D01*
X73689523Y-97854819D02*
X73260952Y-97283390D01*
X73689523Y-96854819D02*
X73118095Y-97426247D01*
X79643333Y-53084819D02*
X79310000Y-52608628D01*
X79071905Y-53084819D02*
X79071905Y-52084819D01*
X79071905Y-52084819D02*
X79452857Y-52084819D01*
X79452857Y-52084819D02*
X79548095Y-52132438D01*
X79548095Y-52132438D02*
X79595714Y-52180057D01*
X79595714Y-52180057D02*
X79643333Y-52275295D01*
X79643333Y-52275295D02*
X79643333Y-52418152D01*
X79643333Y-52418152D02*
X79595714Y-52513390D01*
X79595714Y-52513390D02*
X79548095Y-52561009D01*
X79548095Y-52561009D02*
X79452857Y-52608628D01*
X79452857Y-52608628D02*
X79071905Y-52608628D01*
X80024286Y-52180057D02*
X80071905Y-52132438D01*
X80071905Y-52132438D02*
X80167143Y-52084819D01*
X80167143Y-52084819D02*
X80405238Y-52084819D01*
X80405238Y-52084819D02*
X80500476Y-52132438D01*
X80500476Y-52132438D02*
X80548095Y-52180057D01*
X80548095Y-52180057D02*
X80595714Y-52275295D01*
X80595714Y-52275295D02*
X80595714Y-52370533D01*
X80595714Y-52370533D02*
X80548095Y-52513390D01*
X80548095Y-52513390D02*
X79976667Y-53084819D01*
X79976667Y-53084819D02*
X80595714Y-53084819D01*
X51361905Y-68744819D02*
X51361905Y-67744819D01*
X51933333Y-68744819D02*
X51504762Y-68173390D01*
X51933333Y-67744819D02*
X51361905Y-68316247D01*
X52790476Y-68078152D02*
X52790476Y-68744819D01*
X52552381Y-67697200D02*
X52314286Y-68411485D01*
X52314286Y-68411485D02*
X52933333Y-68411485D01*
X51361905Y-56194819D02*
X51361905Y-55194819D01*
X51933333Y-56194819D02*
X51504762Y-55623390D01*
X51933333Y-55194819D02*
X51361905Y-55766247D01*
X52266667Y-55194819D02*
X52885714Y-55194819D01*
X52885714Y-55194819D02*
X52552381Y-55575771D01*
X52552381Y-55575771D02*
X52695238Y-55575771D01*
X52695238Y-55575771D02*
X52790476Y-55623390D01*
X52790476Y-55623390D02*
X52838095Y-55671009D01*
X52838095Y-55671009D02*
X52885714Y-55766247D01*
X52885714Y-55766247D02*
X52885714Y-56004342D01*
X52885714Y-56004342D02*
X52838095Y-56099580D01*
X52838095Y-56099580D02*
X52790476Y-56147200D01*
X52790476Y-56147200D02*
X52695238Y-56194819D01*
X52695238Y-56194819D02*
X52409524Y-56194819D01*
X52409524Y-56194819D02*
X52314286Y-56147200D01*
X52314286Y-56147200D02*
X52266667Y-56099580D01*
X87333333Y-101359580D02*
X87285714Y-101407200D01*
X87285714Y-101407200D02*
X87142857Y-101454819D01*
X87142857Y-101454819D02*
X87047619Y-101454819D01*
X87047619Y-101454819D02*
X86904762Y-101407200D01*
X86904762Y-101407200D02*
X86809524Y-101311961D01*
X86809524Y-101311961D02*
X86761905Y-101216723D01*
X86761905Y-101216723D02*
X86714286Y-101026247D01*
X86714286Y-101026247D02*
X86714286Y-100883390D01*
X86714286Y-100883390D02*
X86761905Y-100692914D01*
X86761905Y-100692914D02*
X86809524Y-100597676D01*
X86809524Y-100597676D02*
X86904762Y-100502438D01*
X86904762Y-100502438D02*
X87047619Y-100454819D01*
X87047619Y-100454819D02*
X87142857Y-100454819D01*
X87142857Y-100454819D02*
X87285714Y-100502438D01*
X87285714Y-100502438D02*
X87333333Y-100550057D01*
X87809524Y-101454819D02*
X88000000Y-101454819D01*
X88000000Y-101454819D02*
X88095238Y-101407200D01*
X88095238Y-101407200D02*
X88142857Y-101359580D01*
X88142857Y-101359580D02*
X88238095Y-101216723D01*
X88238095Y-101216723D02*
X88285714Y-101026247D01*
X88285714Y-101026247D02*
X88285714Y-100645295D01*
X88285714Y-100645295D02*
X88238095Y-100550057D01*
X88238095Y-100550057D02*
X88190476Y-100502438D01*
X88190476Y-100502438D02*
X88095238Y-100454819D01*
X88095238Y-100454819D02*
X87904762Y-100454819D01*
X87904762Y-100454819D02*
X87809524Y-100502438D01*
X87809524Y-100502438D02*
X87761905Y-100550057D01*
X87761905Y-100550057D02*
X87714286Y-100645295D01*
X87714286Y-100645295D02*
X87714286Y-100883390D01*
X87714286Y-100883390D02*
X87761905Y-100978628D01*
X87761905Y-100978628D02*
X87809524Y-101026247D01*
X87809524Y-101026247D02*
X87904762Y-101073866D01*
X87904762Y-101073866D02*
X88095238Y-101073866D01*
X88095238Y-101073866D02*
X88190476Y-101026247D01*
X88190476Y-101026247D02*
X88238095Y-100978628D01*
X88238095Y-100978628D02*
X88285714Y-100883390D01*
X74714761Y-46490057D02*
X74619523Y-46442438D01*
X74619523Y-46442438D02*
X74524285Y-46347200D01*
X74524285Y-46347200D02*
X74381428Y-46204342D01*
X74381428Y-46204342D02*
X74286190Y-46156723D01*
X74286190Y-46156723D02*
X74190952Y-46156723D01*
X74238571Y-46394819D02*
X74143333Y-46347200D01*
X74143333Y-46347200D02*
X74048095Y-46251961D01*
X74048095Y-46251961D02*
X74000476Y-46061485D01*
X74000476Y-46061485D02*
X74000476Y-45728152D01*
X74000476Y-45728152D02*
X74048095Y-45537676D01*
X74048095Y-45537676D02*
X74143333Y-45442438D01*
X74143333Y-45442438D02*
X74238571Y-45394819D01*
X74238571Y-45394819D02*
X74429047Y-45394819D01*
X74429047Y-45394819D02*
X74524285Y-45442438D01*
X74524285Y-45442438D02*
X74619523Y-45537676D01*
X74619523Y-45537676D02*
X74667142Y-45728152D01*
X74667142Y-45728152D02*
X74667142Y-46061485D01*
X74667142Y-46061485D02*
X74619523Y-46251961D01*
X74619523Y-46251961D02*
X74524285Y-46347200D01*
X74524285Y-46347200D02*
X74429047Y-46394819D01*
X74429047Y-46394819D02*
X74238571Y-46394819D01*
X75048095Y-45490057D02*
X75095714Y-45442438D01*
X75095714Y-45442438D02*
X75190952Y-45394819D01*
X75190952Y-45394819D02*
X75429047Y-45394819D01*
X75429047Y-45394819D02*
X75524285Y-45442438D01*
X75524285Y-45442438D02*
X75571904Y-45490057D01*
X75571904Y-45490057D02*
X75619523Y-45585295D01*
X75619523Y-45585295D02*
X75619523Y-45680533D01*
X75619523Y-45680533D02*
X75571904Y-45823390D01*
X75571904Y-45823390D02*
X75000476Y-46394819D01*
X75000476Y-46394819D02*
X75619523Y-46394819D01*
X77452428Y-47653157D02*
X77495285Y-47610300D01*
X77495285Y-47610300D02*
X77623857Y-47567442D01*
X77623857Y-47567442D02*
X77709571Y-47567442D01*
X77709571Y-47567442D02*
X77838142Y-47610300D01*
X77838142Y-47610300D02*
X77923857Y-47696014D01*
X77923857Y-47696014D02*
X77966714Y-47781728D01*
X77966714Y-47781728D02*
X78009571Y-47953157D01*
X78009571Y-47953157D02*
X78009571Y-48081728D01*
X78009571Y-48081728D02*
X77966714Y-48253157D01*
X77966714Y-48253157D02*
X77923857Y-48338871D01*
X77923857Y-48338871D02*
X77838142Y-48424585D01*
X77838142Y-48424585D02*
X77709571Y-48467442D01*
X77709571Y-48467442D02*
X77623857Y-48467442D01*
X77623857Y-48467442D02*
X77495285Y-48424585D01*
X77495285Y-48424585D02*
X77452428Y-48381728D01*
X74745714Y-48038871D02*
X74617142Y-47996014D01*
X74617142Y-47996014D02*
X74574285Y-47953157D01*
X74574285Y-47953157D02*
X74531428Y-47867442D01*
X74531428Y-47867442D02*
X74531428Y-47738871D01*
X74531428Y-47738871D02*
X74574285Y-47653157D01*
X74574285Y-47653157D02*
X74617142Y-47610300D01*
X74617142Y-47610300D02*
X74702857Y-47567442D01*
X74702857Y-47567442D02*
X75045714Y-47567442D01*
X75045714Y-47567442D02*
X75045714Y-48467442D01*
X75045714Y-48467442D02*
X74745714Y-48467442D01*
X74745714Y-48467442D02*
X74660000Y-48424585D01*
X74660000Y-48424585D02*
X74617142Y-48381728D01*
X74617142Y-48381728D02*
X74574285Y-48296014D01*
X74574285Y-48296014D02*
X74574285Y-48210300D01*
X74574285Y-48210300D02*
X74617142Y-48124585D01*
X74617142Y-48124585D02*
X74660000Y-48081728D01*
X74660000Y-48081728D02*
X74745714Y-48038871D01*
X74745714Y-48038871D02*
X75045714Y-48038871D01*
X72081857Y-48038871D02*
X71781857Y-48038871D01*
X71653285Y-47567442D02*
X72081857Y-47567442D01*
X72081857Y-47567442D02*
X72081857Y-48467442D01*
X72081857Y-48467442D02*
X71653285Y-48467442D01*
X107854819Y-108738094D02*
X106854819Y-108738094D01*
X106854819Y-108738094D02*
X106854819Y-108499999D01*
X106854819Y-108499999D02*
X106902438Y-108357142D01*
X106902438Y-108357142D02*
X106997676Y-108261904D01*
X106997676Y-108261904D02*
X107092914Y-108214285D01*
X107092914Y-108214285D02*
X107283390Y-108166666D01*
X107283390Y-108166666D02*
X107426247Y-108166666D01*
X107426247Y-108166666D02*
X107616723Y-108214285D01*
X107616723Y-108214285D02*
X107711961Y-108261904D01*
X107711961Y-108261904D02*
X107807200Y-108357142D01*
X107807200Y-108357142D02*
X107854819Y-108499999D01*
X107854819Y-108499999D02*
X107854819Y-108738094D01*
X107283390Y-107595237D02*
X107235771Y-107690475D01*
X107235771Y-107690475D02*
X107188152Y-107738094D01*
X107188152Y-107738094D02*
X107092914Y-107785713D01*
X107092914Y-107785713D02*
X107045295Y-107785713D01*
X107045295Y-107785713D02*
X106950057Y-107738094D01*
X106950057Y-107738094D02*
X106902438Y-107690475D01*
X106902438Y-107690475D02*
X106854819Y-107595237D01*
X106854819Y-107595237D02*
X106854819Y-107404761D01*
X106854819Y-107404761D02*
X106902438Y-107309523D01*
X106902438Y-107309523D02*
X106950057Y-107261904D01*
X106950057Y-107261904D02*
X107045295Y-107214285D01*
X107045295Y-107214285D02*
X107092914Y-107214285D01*
X107092914Y-107214285D02*
X107188152Y-107261904D01*
X107188152Y-107261904D02*
X107235771Y-107309523D01*
X107235771Y-107309523D02*
X107283390Y-107404761D01*
X107283390Y-107404761D02*
X107283390Y-107595237D01*
X107283390Y-107595237D02*
X107331009Y-107690475D01*
X107331009Y-107690475D02*
X107378628Y-107738094D01*
X107378628Y-107738094D02*
X107473866Y-107785713D01*
X107473866Y-107785713D02*
X107664342Y-107785713D01*
X107664342Y-107785713D02*
X107759580Y-107738094D01*
X107759580Y-107738094D02*
X107807200Y-107690475D01*
X107807200Y-107690475D02*
X107854819Y-107595237D01*
X107854819Y-107595237D02*
X107854819Y-107404761D01*
X107854819Y-107404761D02*
X107807200Y-107309523D01*
X107807200Y-107309523D02*
X107759580Y-107261904D01*
X107759580Y-107261904D02*
X107664342Y-107214285D01*
X107664342Y-107214285D02*
X107473866Y-107214285D01*
X107473866Y-107214285D02*
X107378628Y-107261904D01*
X107378628Y-107261904D02*
X107331009Y-107309523D01*
X107331009Y-107309523D02*
X107283390Y-107404761D01*
X79643333Y-78084819D02*
X79310000Y-77608628D01*
X79071905Y-78084819D02*
X79071905Y-77084819D01*
X79071905Y-77084819D02*
X79452857Y-77084819D01*
X79452857Y-77084819D02*
X79548095Y-77132438D01*
X79548095Y-77132438D02*
X79595714Y-77180057D01*
X79595714Y-77180057D02*
X79643333Y-77275295D01*
X79643333Y-77275295D02*
X79643333Y-77418152D01*
X79643333Y-77418152D02*
X79595714Y-77513390D01*
X79595714Y-77513390D02*
X79548095Y-77561009D01*
X79548095Y-77561009D02*
X79452857Y-77608628D01*
X79452857Y-77608628D02*
X79071905Y-77608628D01*
X80500476Y-77418152D02*
X80500476Y-78084819D01*
X80262381Y-77037200D02*
X80024286Y-77751485D01*
X80024286Y-77751485D02*
X80643333Y-77751485D01*
X99483333Y-99204819D02*
X99007143Y-99204819D01*
X99007143Y-99204819D02*
X99007143Y-98204819D01*
X100340476Y-99204819D02*
X99769048Y-99204819D01*
X100054762Y-99204819D02*
X100054762Y-98204819D01*
X100054762Y-98204819D02*
X99959524Y-98347676D01*
X99959524Y-98347676D02*
X99864286Y-98442914D01*
X99864286Y-98442914D02*
X99769048Y-98490533D01*
X144570533Y-65109580D02*
X144522914Y-65157200D01*
X144522914Y-65157200D02*
X144380057Y-65204819D01*
X144380057Y-65204819D02*
X144284819Y-65204819D01*
X144284819Y-65204819D02*
X144141962Y-65157200D01*
X144141962Y-65157200D02*
X144046724Y-65061961D01*
X144046724Y-65061961D02*
X143999105Y-64966723D01*
X143999105Y-64966723D02*
X143951486Y-64776247D01*
X143951486Y-64776247D02*
X143951486Y-64633390D01*
X143951486Y-64633390D02*
X143999105Y-64442914D01*
X143999105Y-64442914D02*
X144046724Y-64347676D01*
X144046724Y-64347676D02*
X144141962Y-64252438D01*
X144141962Y-64252438D02*
X144284819Y-64204819D01*
X144284819Y-64204819D02*
X144380057Y-64204819D01*
X144380057Y-64204819D02*
X144522914Y-64252438D01*
X144522914Y-64252438D02*
X144570533Y-64300057D01*
X145475295Y-64204819D02*
X144999105Y-64204819D01*
X144999105Y-64204819D02*
X144951486Y-64681009D01*
X144951486Y-64681009D02*
X144999105Y-64633390D01*
X144999105Y-64633390D02*
X145094343Y-64585771D01*
X145094343Y-64585771D02*
X145332438Y-64585771D01*
X145332438Y-64585771D02*
X145427676Y-64633390D01*
X145427676Y-64633390D02*
X145475295Y-64681009D01*
X145475295Y-64681009D02*
X145522914Y-64776247D01*
X145522914Y-64776247D02*
X145522914Y-65014342D01*
X145522914Y-65014342D02*
X145475295Y-65109580D01*
X145475295Y-65109580D02*
X145427676Y-65157200D01*
X145427676Y-65157200D02*
X145332438Y-65204819D01*
X145332438Y-65204819D02*
X145094343Y-65204819D01*
X145094343Y-65204819D02*
X144999105Y-65157200D01*
X144999105Y-65157200D02*
X144951486Y-65109580D01*
D11*
%TO.C,K1*%
X40920000Y-31830000D02*
X62060000Y-31830000D01*
X40920000Y-42830000D02*
X40920000Y-31830000D01*
X40920000Y-42830000D02*
X62060000Y-42830000D01*
X43870000Y-41140000D02*
X45140000Y-41140000D01*
X44630000Y-36310000D02*
X45140000Y-36310000D01*
X44630000Y-38090000D02*
X45650000Y-37080000D01*
X44630000Y-38850000D02*
X44630000Y-36310000D01*
X45140000Y-33520000D02*
X43870000Y-33520000D01*
X45140000Y-36310000D02*
X45140000Y-33520000D01*
X45140000Y-36310000D02*
X45650000Y-36310000D01*
X45140000Y-38850000D02*
X44630000Y-38850000D01*
X45140000Y-41140000D02*
X45140000Y-38850000D01*
X45650000Y-36310000D02*
X45650000Y-38850000D01*
X45650000Y-38850000D02*
X45140000Y-38850000D01*
X52760000Y-37330000D02*
X57840000Y-37330000D01*
X52760000Y-39870000D02*
X52760000Y-37330000D01*
X57840000Y-37330000D02*
X60630000Y-35930000D01*
X60380000Y-39870000D02*
X60380000Y-38600000D01*
X62060000Y-42830000D02*
X62060000Y-31830000D01*
X57970000Y-37330000D02*
G75*
G02*
X57710000Y-37330000I-130000J0D01*
G01*
X57710000Y-37330000D02*
G75*
G02*
X57970000Y-37330000I130000J0D01*
G01*
%TO.C,U3*%
X28437500Y-99687500D02*
X28437500Y-101687500D01*
X28437500Y-99687500D02*
X30047500Y-99687500D01*
X28717500Y-112227500D02*
X28717500Y-99977500D01*
X28727500Y-99967500D02*
X34467500Y-99967500D01*
X34477500Y-99967500D02*
X34477500Y-112227500D01*
X34477500Y-112227500D02*
X28717500Y-112227500D01*
%TO.C,Q3*%
X73010000Y-63850000D02*
X76610000Y-63850000D01*
X72453600Y-60901193D02*
G75*
G02*
X74810000Y-59400000I2356400J-1098807D01*
G01*
X73010000Y-63850000D02*
G75*
G02*
X72485816Y-63122795I1800000J1850000D01*
G01*
X74810000Y-59400000D02*
G75*
G02*
X77166400Y-60901193I0J-2600000D01*
G01*
X77134184Y-63122795D02*
G75*
G02*
X76610000Y-63850000I-2324184J1122795D01*
G01*
%TO.C,K6*%
X40920000Y-94580000D02*
X62060000Y-94580000D01*
X40920000Y-105580000D02*
X40920000Y-94580000D01*
X40920000Y-105580000D02*
X62060000Y-105580000D01*
X43870000Y-103890000D02*
X45140000Y-103890000D01*
X44630000Y-99060000D02*
X45140000Y-99060000D01*
X44630000Y-100840000D02*
X45650000Y-99830000D01*
X44630000Y-101600000D02*
X44630000Y-99060000D01*
X45140000Y-96270000D02*
X43870000Y-96270000D01*
X45140000Y-99060000D02*
X45140000Y-96270000D01*
X45140000Y-99060000D02*
X45650000Y-99060000D01*
X45140000Y-101600000D02*
X44630000Y-101600000D01*
X45140000Y-103890000D02*
X45140000Y-101600000D01*
X45650000Y-99060000D02*
X45650000Y-101600000D01*
X45650000Y-101600000D02*
X45140000Y-101600000D01*
X52760000Y-100080000D02*
X57840000Y-100080000D01*
X52760000Y-102620000D02*
X52760000Y-100080000D01*
X57840000Y-100080000D02*
X60630000Y-98680000D01*
X60380000Y-102620000D02*
X60380000Y-101350000D01*
X62060000Y-105580000D02*
X62060000Y-94580000D01*
X57970000Y-100080000D02*
G75*
G02*
X57710000Y-100080000I-130000J0D01*
G01*
X57710000Y-100080000D02*
G75*
G02*
X57970000Y-100080000I130000J0D01*
G01*
%TO.C,J2*%
X28880000Y-32130000D02*
X36720000Y-32130000D01*
X28880000Y-33700000D02*
X28880000Y-32130000D01*
X28880000Y-63870000D02*
X28880000Y-34300000D01*
X29400000Y-32130000D02*
X29400000Y-63870000D01*
X30500000Y-32130000D02*
X30500000Y-63870000D01*
X36720000Y-32130000D02*
X36720000Y-63870000D01*
X36720000Y-63870000D02*
X28880000Y-63870000D01*
X28880000Y-34000000D02*
X28270000Y-34440000D01*
X28270000Y-33560000D01*
X28880000Y-34000000D01*
G36*
X28880000Y-34000000D02*
G01*
X28270000Y-34440000D01*
X28270000Y-33560000D01*
X28880000Y-34000000D01*
G37*
%TO.C,D4*%
X82780000Y-73030000D02*
X88220000Y-73030000D01*
X82780000Y-73160000D02*
X82780000Y-73030000D01*
X82780000Y-75840000D02*
X82780000Y-75970000D01*
X82780000Y-75970000D02*
X88220000Y-75970000D01*
D12*
X84484000Y-73357000D02*
X84484000Y-75643000D01*
D11*
X84484000Y-74500000D02*
X83087000Y-74500000D01*
X86643000Y-74500000D02*
X87913000Y-74500000D01*
X88220000Y-73030000D02*
X88220000Y-73160000D01*
X88220000Y-75970000D02*
X88220000Y-75840000D01*
D13*
X86643000Y-75643000D02*
X84484000Y-74500000D01*
X86643000Y-73357000D01*
X86643000Y-75643000D01*
G36*
X86643000Y-75643000D02*
G01*
X84484000Y-74500000D01*
X86643000Y-73357000D01*
X86643000Y-75643000D01*
G37*
D11*
%TO.C,J1*%
X94430000Y-39180000D02*
X95810000Y-39180000D01*
X94430000Y-40560000D02*
X94430000Y-39180000D01*
X94430000Y-41830000D02*
X94430000Y-85120000D01*
X94430000Y-41830000D02*
X97190000Y-41830000D01*
X94430000Y-85120000D02*
X97190000Y-85120000D01*
X97190000Y-41830000D02*
X97190000Y-85120000D01*
%TO.C,C6*%
X142630000Y-58130000D02*
X147870000Y-58130000D01*
X142630000Y-60870000D02*
X142630000Y-58130000D01*
X147870000Y-58130000D02*
X147870000Y-60870000D01*
X147870000Y-60870000D02*
X142630000Y-60870000D01*
%TO.C,R7*%
X38000000Y-69460000D02*
X38000000Y-70230000D01*
X38000000Y-77540000D02*
X38000000Y-76770000D01*
X39370000Y-70230000D02*
X36630000Y-70230000D01*
X36630000Y-76770000D01*
X39370000Y-76770000D01*
X39370000Y-70230000D01*
%TO.C,Q4*%
X73010000Y-76350000D02*
X76610000Y-76350000D01*
X72453600Y-73401193D02*
G75*
G02*
X74810000Y-71900000I2356400J-1098807D01*
G01*
X73010000Y-76350000D02*
G75*
G02*
X72485816Y-75622795I1800000J1850000D01*
G01*
X74810000Y-71900000D02*
G75*
G02*
X77166400Y-73401193I0J-2600000D01*
G01*
X77134184Y-75622795D02*
G75*
G02*
X76610000Y-76350000I-2324184J1122795D01*
G01*
%TO.C,D3*%
X82780000Y-60530000D02*
X88220000Y-60530000D01*
X82780000Y-60660000D02*
X82780000Y-60530000D01*
X82780000Y-63340000D02*
X82780000Y-63470000D01*
X82780000Y-63470000D02*
X88220000Y-63470000D01*
D12*
X84484000Y-60857000D02*
X84484000Y-63143000D01*
D11*
X84484000Y-62000000D02*
X83087000Y-62000000D01*
X86643000Y-62000000D02*
X87913000Y-62000000D01*
X88220000Y-60530000D02*
X88220000Y-60660000D01*
X88220000Y-63470000D02*
X88220000Y-63340000D01*
D13*
X86643000Y-63143000D02*
X84484000Y-62000000D01*
X86643000Y-60857000D01*
X86643000Y-63143000D01*
G36*
X86643000Y-63143000D02*
G01*
X84484000Y-62000000D01*
X86643000Y-60857000D01*
X86643000Y-63143000D01*
G37*
D11*
%TO.C,D2*%
X83090000Y-48030000D02*
X88530000Y-48030000D01*
X83090000Y-48160000D02*
X83090000Y-48030000D01*
X83090000Y-50840000D02*
X83090000Y-50970000D01*
X83090000Y-50970000D02*
X88530000Y-50970000D01*
D12*
X84794000Y-48357000D02*
X84794000Y-50643000D01*
D11*
X84794000Y-49500000D02*
X83397000Y-49500000D01*
X86953000Y-49500000D02*
X88223000Y-49500000D01*
X88530000Y-48030000D02*
X88530000Y-48160000D01*
X88530000Y-50970000D02*
X88530000Y-50840000D01*
D13*
X86953000Y-50643000D02*
X84794000Y-49500000D01*
X86953000Y-48357000D01*
X86953000Y-50643000D01*
G36*
X86953000Y-50643000D02*
G01*
X84794000Y-49500000D01*
X86953000Y-48357000D01*
X86953000Y-50643000D01*
G37*
D11*
%TO.C,Q5*%
X73050000Y-88850000D02*
X76650000Y-88850000D01*
X72493600Y-85901193D02*
G75*
G02*
X74850000Y-84400000I2356400J-1098807D01*
G01*
X73050000Y-88850000D02*
G75*
G02*
X72525816Y-88122795I1800000J1850000D01*
G01*
X74850000Y-84400000D02*
G75*
G02*
X77206400Y-85901193I0J-2600000D01*
G01*
X77174184Y-88122795D02*
G75*
G02*
X76650000Y-88850000I-2324184J1122795D01*
G01*
%TO.C,K5*%
X40920000Y-82030000D02*
X62060000Y-82030000D01*
X40920000Y-93030000D02*
X40920000Y-82030000D01*
X40920000Y-93030000D02*
X62060000Y-93030000D01*
X43870000Y-91340000D02*
X45140000Y-91340000D01*
X44630000Y-86510000D02*
X45140000Y-86510000D01*
X44630000Y-88290000D02*
X45650000Y-87280000D01*
X44630000Y-89050000D02*
X44630000Y-86510000D01*
X45140000Y-83720000D02*
X43870000Y-83720000D01*
X45140000Y-86510000D02*
X45140000Y-83720000D01*
X45140000Y-86510000D02*
X45650000Y-86510000D01*
X45140000Y-89050000D02*
X44630000Y-89050000D01*
X45140000Y-91340000D02*
X45140000Y-89050000D01*
X45650000Y-86510000D02*
X45650000Y-89050000D01*
X45650000Y-89050000D02*
X45140000Y-89050000D01*
X52760000Y-87530000D02*
X57840000Y-87530000D01*
X52760000Y-90070000D02*
X52760000Y-87530000D01*
X57840000Y-87530000D02*
X60630000Y-86130000D01*
X60380000Y-90070000D02*
X60380000Y-88800000D01*
X62060000Y-93030000D02*
X62060000Y-82030000D01*
X57970000Y-87530000D02*
G75*
G02*
X57710000Y-87530000I-130000J0D01*
G01*
X57710000Y-87530000D02*
G75*
G02*
X57970000Y-87530000I130000J0D01*
G01*
%TO.C,R1*%
X75770000Y-42500000D02*
X76540000Y-42500000D01*
X83850000Y-42500000D02*
X83080000Y-42500000D01*
X76540000Y-41130000D02*
X83080000Y-41130000D01*
X83080000Y-43870000D01*
X76540000Y-43870000D01*
X76540000Y-41130000D01*
D14*
%TO.C,A1*%
X104247529Y-93739881D02*
X104247529Y-45239881D01*
X105247529Y-44239881D02*
X131747529Y-44239881D01*
X105247529Y-94739881D02*
X114097529Y-94739881D01*
D12*
X109607529Y-44239881D02*
X127607529Y-44239881D01*
X110607529Y-44839881D02*
X113507529Y-44839881D01*
X110607529Y-49039881D02*
X110607529Y-44839881D01*
X110607529Y-49039881D02*
X110607529Y-44839881D01*
D15*
X110807529Y-45039881D02*
X110807529Y-48939881D01*
D12*
X111007529Y-45239881D02*
X111007529Y-49039881D01*
X111007529Y-49039881D02*
X110607529Y-49039881D01*
X113107529Y-45239881D02*
X111007529Y-45239881D01*
X113107529Y-48039881D02*
X113107529Y-45239881D01*
X113107529Y-48039881D02*
X113107529Y-45239881D01*
D15*
X113357529Y-45039881D02*
X110807529Y-45039881D01*
X113357529Y-47789881D02*
X113357529Y-45039881D01*
D12*
X113507529Y-44839881D02*
X113507529Y-47639881D01*
X113507529Y-47639881D02*
X115907529Y-47639881D01*
D14*
X114120863Y-94745000D02*
X114120863Y-95935000D01*
X114120863Y-95935000D02*
X122874195Y-95935000D01*
D12*
X115480529Y-55232431D02*
X116278529Y-55232431D01*
X115480529Y-56562431D02*
X115480529Y-55232431D01*
X115613529Y-55402231D02*
X115613529Y-55770131D01*
X115613529Y-55770131D02*
X116189869Y-55770131D01*
X115613529Y-55939831D02*
X115613529Y-56392631D01*
X115613529Y-56392631D02*
X116278529Y-56392631D01*
X115907529Y-44839881D02*
X119107529Y-44839881D01*
X115907529Y-47639881D02*
X115907529Y-44839881D01*
X115907529Y-47639881D02*
X115907529Y-44839881D01*
D15*
X116157529Y-45039881D02*
X116157529Y-47789881D01*
X116157529Y-47789881D02*
X113357529Y-47789881D01*
D12*
X116189869Y-55770131D02*
X116189869Y-55939831D01*
X116189869Y-55939831D02*
X115613529Y-55939831D01*
X116278529Y-55232431D02*
X116278529Y-55402231D01*
X116278529Y-55402231D02*
X115613529Y-55402231D01*
X116278529Y-56392631D02*
X116278529Y-56562431D01*
X116278529Y-56562431D02*
X115480529Y-56562431D01*
X116307529Y-45239881D02*
X116307529Y-48039881D01*
X116307529Y-48039881D02*
X113107529Y-48039881D01*
X116455869Y-56194531D02*
X116588869Y-56194531D01*
X116478029Y-56307731D02*
X116455869Y-56194531D01*
X116522369Y-55543731D02*
X116544529Y-55430531D01*
X116522369Y-55656931D02*
X116522369Y-55543731D01*
X116544529Y-55430531D02*
X116633199Y-55317331D01*
X116544529Y-55770131D02*
X116522369Y-55656931D01*
X116544529Y-56449231D02*
X116478029Y-56307731D01*
X116588869Y-56194531D02*
X116611029Y-56279431D01*
X116611029Y-56279431D02*
X116677529Y-56364331D01*
X116633199Y-55317331D02*
X116721869Y-55260731D01*
X116633199Y-55883331D02*
X116544529Y-55770131D01*
X116655369Y-55572031D02*
X116655369Y-55628631D01*
X116655369Y-55628631D02*
X116677529Y-55713531D01*
X116655369Y-56534131D02*
X116544529Y-56449231D01*
X116677529Y-55487131D02*
X116655369Y-55572031D01*
X116677529Y-55713531D02*
X116744029Y-55770131D01*
X116677529Y-56364331D02*
X116766199Y-56392631D01*
X116721869Y-55260731D02*
X116810529Y-55232431D01*
X116721869Y-55939831D02*
X116633199Y-55883331D01*
X116744029Y-55430531D02*
X116677529Y-55487131D01*
X116744029Y-55770131D02*
X116810529Y-55798431D01*
X116766199Y-56392631D02*
X116943529Y-56392631D01*
X116766199Y-56562431D02*
X116655369Y-56534131D01*
X116810529Y-55232431D02*
X116921369Y-55232431D01*
X116810529Y-55402231D02*
X116744029Y-55430531D01*
X116810529Y-55798431D02*
X116943529Y-55798431D01*
X116810529Y-55968131D02*
X116721869Y-55939831D01*
X116921369Y-55232431D02*
X117032199Y-55260731D01*
X116943529Y-55402231D02*
X116810529Y-55402231D01*
X116943529Y-55798431D02*
X117054369Y-55826731D01*
X116943529Y-55968131D02*
X116810529Y-55968131D01*
X116943529Y-56392631D02*
X117032199Y-56364331D01*
X116943529Y-56562431D02*
X116766199Y-56562431D01*
X117010029Y-55430531D02*
X116943529Y-55402231D01*
X117032199Y-55260731D02*
X117120869Y-55345631D01*
X117032199Y-55996431D02*
X116943529Y-55968131D01*
X117032199Y-56364331D02*
X117098699Y-56307731D01*
X117054369Y-55487131D02*
X117010029Y-55430531D01*
X117054369Y-55826731D02*
X117143029Y-55883331D01*
X117054369Y-56534131D02*
X116943529Y-56562431D01*
X117076529Y-55543731D02*
X117054369Y-55487131D01*
X117098699Y-56053031D02*
X117032199Y-55996431D01*
X117098699Y-56307731D02*
X117143029Y-56222831D01*
X117120869Y-55345631D02*
X117187369Y-55458831D01*
X117143029Y-55883331D02*
X117231699Y-55996431D01*
X117143029Y-56137931D02*
X117098699Y-56053031D01*
X117143029Y-56222831D02*
X117143029Y-56137931D01*
X117143029Y-56477531D02*
X117054369Y-56534131D01*
X117187369Y-55458831D02*
X117209529Y-55543731D01*
X117209529Y-55543731D02*
X117076529Y-55543731D01*
X117231699Y-55996431D02*
X117276029Y-56109631D01*
X117231699Y-56364331D02*
X117143029Y-56477531D01*
X117276029Y-56109631D02*
X117276029Y-56251131D01*
X117276029Y-56251131D02*
X117231699Y-56364331D01*
X117453369Y-55232431D02*
X117985369Y-55232431D01*
X117453369Y-56562431D02*
X117453369Y-55232431D01*
X117586369Y-55373931D02*
X117586369Y-55798431D01*
X117586369Y-55798431D02*
X118007529Y-55798431D01*
X117586369Y-55968131D02*
X117586369Y-56562431D01*
X117586369Y-56562431D02*
X117453369Y-56562431D01*
X117985369Y-55232431D02*
X118096199Y-55260731D01*
X117985369Y-55968131D02*
X117586369Y-55968131D01*
X118007529Y-55373931D02*
X117586369Y-55373931D01*
X118007529Y-55798431D02*
X118074029Y-55770131D01*
X118074029Y-55402231D02*
X118007529Y-55373931D01*
X118074029Y-55770131D02*
X118118369Y-55713531D01*
X118096199Y-55260731D02*
X118184869Y-55345631D01*
X118096199Y-55939831D02*
X117985369Y-55968131D01*
X118118369Y-55458831D02*
X118074029Y-55402231D01*
X118118369Y-55713531D02*
X118140529Y-55628631D01*
X118140529Y-55543731D02*
X118118369Y-55458831D01*
X118140529Y-55628631D02*
X118140529Y-55543731D01*
X118184869Y-55345631D02*
X118251369Y-55458831D01*
X118184869Y-55855031D02*
X118096199Y-55939831D01*
X118251369Y-55458831D02*
X118273529Y-55543731D01*
X118251369Y-55741831D02*
X118184869Y-55855031D01*
X118273529Y-55543731D02*
X118273529Y-55656931D01*
X118273529Y-55656931D02*
X118251369Y-55741831D01*
X118452364Y-55939881D02*
X118762694Y-55939881D01*
X118452364Y-56081381D02*
X118452364Y-55939881D01*
X118707529Y-45239881D02*
X116307529Y-45239881D01*
X118707529Y-48039881D02*
X118707529Y-45239881D01*
X118707529Y-48039881D02*
X118707529Y-45239881D01*
X118762694Y-55939881D02*
X118762694Y-56081381D01*
X118762694Y-56081381D02*
X118452364Y-56081381D01*
D15*
X118857529Y-45039881D02*
X116157529Y-45039881D01*
X118857529Y-47739881D02*
X118857529Y-45039881D01*
D11*
X118957529Y-47839881D02*
X118857529Y-47739881D01*
D12*
X119076029Y-56251181D02*
X119186869Y-56251181D01*
X119098199Y-55543781D02*
X119120369Y-55430581D01*
X119098199Y-56336081D02*
X119076029Y-56251181D01*
X119107529Y-44839881D02*
X119107529Y-47639881D01*
X119107529Y-47639881D02*
X121507529Y-47639881D01*
X119120369Y-55430581D02*
X119209029Y-55317381D01*
X119142529Y-56420981D02*
X119098199Y-56336081D01*
X119186869Y-56251181D02*
X119209029Y-56307781D01*
X119209029Y-55317381D02*
X119297699Y-55260781D01*
X119209029Y-55543781D02*
X119098199Y-55543781D01*
X119209029Y-56307781D02*
X119253369Y-56364381D01*
X119209029Y-56477581D02*
X119142529Y-56420981D01*
X119253369Y-55458881D02*
X119209029Y-55543781D01*
X119253369Y-56364381D02*
X119297699Y-56392681D01*
X119297699Y-55260781D02*
X119452869Y-55232481D01*
X119297699Y-56392681D02*
X119408529Y-56420981D01*
X119297699Y-56534181D02*
X119209029Y-56477581D01*
X119319869Y-55402281D02*
X119253369Y-55458881D01*
X119386369Y-56562481D02*
X119297699Y-56534181D01*
X119408529Y-56420981D02*
X119541529Y-56420981D01*
X119430699Y-55373981D02*
X119319869Y-55402281D01*
X119430699Y-55826781D02*
X119519369Y-55826781D01*
X119430699Y-55939881D02*
X119430699Y-55826781D01*
X119452869Y-55232481D02*
X119497199Y-55232481D01*
X119497199Y-55232481D02*
X119652369Y-55260781D01*
X119519369Y-55373981D02*
X119430699Y-55373981D01*
X119519369Y-55826781D02*
X119652369Y-55770181D01*
X119519369Y-55939881D02*
X119430699Y-55939881D01*
X119541529Y-56420981D02*
X119652369Y-56392681D01*
X119563699Y-56562481D02*
X119386369Y-56562481D01*
X119630199Y-55402281D02*
X119519369Y-55373981D01*
X119652369Y-55260781D02*
X119741029Y-55317381D01*
X119652369Y-55770181D02*
X119696699Y-55713581D01*
X119652369Y-55968181D02*
X119519369Y-55939881D01*
X119652369Y-56392681D02*
X119696699Y-56364381D01*
X119652369Y-56534181D02*
X119563699Y-56562481D01*
X119696699Y-55458881D02*
X119630199Y-55402281D01*
X119696699Y-55713581D02*
X119741029Y-55600381D01*
X119696699Y-55883381D02*
X119807529Y-55939881D01*
X119696699Y-56364381D02*
X119741029Y-56307781D01*
X119718869Y-56024781D02*
X119652369Y-55968181D01*
X119741029Y-55317381D02*
X119829699Y-55430581D01*
X119741029Y-55543781D02*
X119696699Y-55458881D01*
X119741029Y-55600381D02*
X119741029Y-55543781D01*
X119741029Y-56307781D02*
X119763199Y-56251181D01*
X119741029Y-56477581D02*
X119652369Y-56534181D01*
X119763199Y-56137981D02*
X119718869Y-56024781D01*
X119763199Y-56251181D02*
X119763199Y-56137981D01*
X119785369Y-55798481D02*
X119696699Y-55883381D01*
X119807529Y-55939881D02*
X119851869Y-56024781D01*
X119807529Y-56420981D02*
X119741029Y-56477581D01*
X119829699Y-55430581D02*
X119851869Y-55543781D01*
X119829699Y-55713581D02*
X119785369Y-55798481D01*
X119851869Y-55543781D02*
X119851869Y-55600381D01*
X119851869Y-55600381D02*
X119829699Y-55713581D01*
X119851869Y-56024781D02*
X119874029Y-56137981D01*
X119851869Y-56336081D02*
X119807529Y-56420981D01*
X119874029Y-56137981D02*
X119874029Y-56251181D01*
X119874029Y-56251181D02*
X119851869Y-56336081D01*
X120051369Y-56420981D02*
X120672029Y-55713581D01*
X120051369Y-56562481D02*
X120051369Y-56420981D01*
X120073529Y-55543781D02*
X120095699Y-55430581D01*
X120095699Y-55430581D02*
X120184369Y-55317381D01*
X120184369Y-55317381D02*
X120273029Y-55260781D01*
X120184369Y-55543781D02*
X120073529Y-55543781D01*
X120228699Y-55458881D02*
X120184369Y-55543781D01*
X120228699Y-56420981D02*
X120849369Y-56420981D01*
X120273029Y-55260781D02*
X120428199Y-55232481D01*
X120295199Y-55402281D02*
X120228699Y-55458881D01*
X120406029Y-55373981D02*
X120295199Y-55402281D01*
X120428199Y-55232481D02*
X120516869Y-55232481D01*
X120494699Y-55373981D02*
X120406029Y-55373981D01*
X120516869Y-55232481D02*
X120649869Y-55260781D01*
X120605529Y-55402281D02*
X120494699Y-55373981D01*
X120649869Y-55260781D02*
X120738529Y-55317381D01*
X120672029Y-55458881D02*
X120605529Y-55402281D01*
X120672029Y-55713581D02*
X120716369Y-55600381D01*
X120716369Y-55543781D02*
X120672029Y-55458881D01*
X120716369Y-55600381D02*
X120716369Y-55543781D01*
X120738529Y-55317381D02*
X120827199Y-55430581D01*
X120782869Y-55798481D02*
X120228699Y-56420981D01*
X120827199Y-55430581D02*
X120849369Y-55543781D01*
X120827199Y-55713581D02*
X120782869Y-55798481D01*
X120849369Y-55543781D02*
X120849369Y-55600381D01*
X120849369Y-55600381D02*
X120827199Y-55713581D01*
X120849369Y-56420981D02*
X120849369Y-56562481D01*
X120849369Y-56562481D02*
X120051369Y-56562481D01*
X121507529Y-44839881D02*
X125907529Y-44839881D01*
X121507529Y-47639881D02*
X121507529Y-44839881D01*
X121507529Y-47639881D02*
X121507529Y-44839881D01*
D15*
X121707529Y-45039881D02*
X121707529Y-47839881D01*
X121707529Y-47839881D02*
X118957529Y-47839881D01*
D12*
X121907529Y-45239881D02*
X121907529Y-48039881D01*
X121907529Y-48039881D02*
X118707529Y-48039881D01*
D14*
X122874195Y-95935000D02*
X122874195Y-94795000D01*
D12*
X123507529Y-45239881D02*
X121907529Y-45239881D01*
X123507529Y-50689881D02*
X123507529Y-45239881D01*
D16*
X123707529Y-44989881D02*
X123707529Y-50539881D01*
D15*
X123757529Y-45039881D02*
X121707529Y-45039881D01*
D12*
X123907529Y-45239881D02*
X125507529Y-45239881D01*
X123907529Y-50689881D02*
X123907529Y-45239881D01*
X125507529Y-45239881D02*
X125507529Y-50639881D01*
X125507529Y-45239881D02*
X125507529Y-50639881D01*
D15*
X125707529Y-45039881D02*
X123757529Y-45039881D01*
X125707529Y-50539881D02*
X125707529Y-44939881D01*
D12*
X125907529Y-44839881D02*
X125907529Y-50689881D01*
D14*
X131747529Y-94739881D02*
X122874195Y-94739881D01*
X132747529Y-93739881D02*
X132747529Y-45239881D01*
D10*
X109607529Y-69739881D02*
X127607529Y-69739881D01*
X127607529Y-44239881D01*
X109607529Y-44239881D01*
X109607529Y-69739881D01*
D11*
X122874195Y-95935000D02*
X114097529Y-95935000D01*
X114097529Y-90035000D01*
X122874195Y-90035000D01*
X122874195Y-95935000D01*
D12*
X126457529Y-68652013D02*
X110695399Y-68652013D01*
X110695399Y-50689881D01*
X126457529Y-50689881D01*
X126457529Y-68652013D01*
D14*
X104247529Y-45239881D02*
G75*
G02*
X105247529Y-44239929I999671J281D01*
G01*
X105247529Y-94739881D02*
G75*
G02*
X104247519Y-93739881I-329J999681D01*
G01*
X131747529Y-44239881D02*
G75*
G02*
X132747529Y-45239881I305J-999695D01*
G01*
X132747540Y-93685000D02*
G75*
G02*
X131747529Y-94739881I-1056048J-321D01*
G01*
D11*
%TO.C,D5*%
X82590000Y-86530000D02*
X88030000Y-86530000D01*
X82590000Y-86660000D02*
X82590000Y-86530000D01*
X82590000Y-89340000D02*
X82590000Y-89470000D01*
X82590000Y-89470000D02*
X88030000Y-89470000D01*
D12*
X84294000Y-86857000D02*
X84294000Y-89143000D01*
D11*
X84294000Y-88000000D02*
X82897000Y-88000000D01*
X86453000Y-88000000D02*
X87723000Y-88000000D01*
X88030000Y-86530000D02*
X88030000Y-86660000D01*
X88030000Y-89470000D02*
X88030000Y-89340000D01*
D13*
X86453000Y-89143000D02*
X84294000Y-88000000D01*
X86453000Y-86857000D01*
X86453000Y-89143000D01*
G36*
X86453000Y-89143000D02*
G01*
X84294000Y-88000000D01*
X86453000Y-86857000D01*
X86453000Y-89143000D01*
G37*
D11*
%TO.C,K2*%
X40920000Y-44380000D02*
X62060000Y-44380000D01*
X40920000Y-55380000D02*
X40920000Y-44380000D01*
X40920000Y-55380000D02*
X62060000Y-55380000D01*
X43870000Y-53690000D02*
X45140000Y-53690000D01*
X44630000Y-48860000D02*
X45140000Y-48860000D01*
X44630000Y-50640000D02*
X45650000Y-49630000D01*
X44630000Y-51400000D02*
X44630000Y-48860000D01*
X45140000Y-46070000D02*
X43870000Y-46070000D01*
X45140000Y-48860000D02*
X45140000Y-46070000D01*
X45140000Y-48860000D02*
X45650000Y-48860000D01*
X45140000Y-51400000D02*
X44630000Y-51400000D01*
X45140000Y-53690000D02*
X45140000Y-51400000D01*
X45650000Y-48860000D02*
X45650000Y-51400000D01*
X45650000Y-51400000D02*
X45140000Y-51400000D01*
X52760000Y-49880000D02*
X57840000Y-49880000D01*
X52760000Y-52420000D02*
X52760000Y-49880000D01*
X57840000Y-49880000D02*
X60630000Y-48480000D01*
X60380000Y-52420000D02*
X60380000Y-51150000D01*
X62060000Y-55380000D02*
X62060000Y-44380000D01*
X57970000Y-49880000D02*
G75*
G02*
X57710000Y-49880000I-130000J0D01*
G01*
X57710000Y-49880000D02*
G75*
G02*
X57970000Y-49880000I130000J0D01*
G01*
%TO.C,R6*%
X67960000Y-105000000D02*
X68730000Y-105000000D01*
X76040000Y-105000000D02*
X75270000Y-105000000D01*
X68730000Y-103630000D02*
X75270000Y-103630000D01*
X75270000Y-106370000D01*
X68730000Y-106370000D01*
X68730000Y-103630000D01*
%TO.C,R5*%
X75690000Y-92500000D02*
X76460000Y-92500000D01*
X83770000Y-92500000D02*
X83000000Y-92500000D01*
X76460000Y-91130000D02*
X83000000Y-91130000D01*
X83000000Y-93870000D01*
X76460000Y-93870000D01*
X76460000Y-91130000D01*
%TO.C,R3*%
X75770000Y-68000000D02*
X76540000Y-68000000D01*
X83850000Y-68000000D02*
X83080000Y-68000000D01*
X76540000Y-66630000D02*
X83080000Y-66630000D01*
X83080000Y-69370000D01*
X76540000Y-69370000D01*
X76540000Y-66630000D01*
%TO.C,C8*%
X82670000Y-107033000D02*
X82670000Y-105967000D01*
X82710000Y-107268000D02*
X82710000Y-105732000D01*
X82750000Y-107447000D02*
X82750000Y-105553000D01*
X82790000Y-107597000D02*
X82790000Y-105403000D01*
X82830000Y-107728000D02*
X82830000Y-105272000D01*
X82870000Y-107846000D02*
X82870000Y-105154000D01*
X82910000Y-107953000D02*
X82910000Y-105047000D01*
X82950000Y-108052000D02*
X82950000Y-104948000D01*
X82990000Y-108144000D02*
X82990000Y-104856000D01*
X83030000Y-108231000D02*
X83030000Y-104769000D01*
X83070000Y-108313000D02*
X83070000Y-104687000D01*
X83110000Y-108390000D02*
X83110000Y-104610000D01*
X83150000Y-108464000D02*
X83150000Y-104536000D01*
X83190000Y-108534000D02*
X83190000Y-104466000D01*
X83230000Y-108601000D02*
X83230000Y-104399000D01*
X83270000Y-108665000D02*
X83270000Y-104335000D01*
X83310000Y-108727000D02*
X83310000Y-104273000D01*
X83350000Y-108787000D02*
X83350000Y-104213000D01*
X83390000Y-108844000D02*
X83390000Y-104156000D01*
X83430000Y-108900000D02*
X83430000Y-104100000D01*
X83470000Y-108953000D02*
X83470000Y-104047000D01*
X83510000Y-109005000D02*
X83510000Y-103995000D01*
X83550000Y-109055000D02*
X83550000Y-103945000D01*
X83590000Y-109104000D02*
X83590000Y-103896000D01*
X83630000Y-109151000D02*
X83630000Y-103849000D01*
X83670000Y-109196000D02*
X83670000Y-103804000D01*
X83710000Y-109241000D02*
X83710000Y-103759000D01*
X83750000Y-109284000D02*
X83750000Y-103716000D01*
X83790000Y-109326000D02*
X83790000Y-103674000D01*
X83830000Y-109367000D02*
X83830000Y-103633000D01*
X83870000Y-109406000D02*
X83870000Y-103594000D01*
X83910000Y-109445000D02*
X83910000Y-103555000D01*
X83950000Y-109482000D02*
X83950000Y-103518000D01*
X83990000Y-105460000D02*
X83990000Y-103481000D01*
X83990000Y-109519000D02*
X83990000Y-107540000D01*
X84030000Y-105460000D02*
X84030000Y-103445000D01*
X84030000Y-109555000D02*
X84030000Y-107540000D01*
X84070000Y-105460000D02*
X84070000Y-103411000D01*
X84070000Y-109589000D02*
X84070000Y-107540000D01*
X84110000Y-105460000D02*
X84110000Y-103377000D01*
X84110000Y-109623000D02*
X84110000Y-107540000D01*
X84150000Y-105460000D02*
X84150000Y-103344000D01*
X84150000Y-109656000D02*
X84150000Y-107540000D01*
X84190000Y-105460000D02*
X84190000Y-103312000D01*
X84190000Y-109688000D02*
X84190000Y-107540000D01*
X84230000Y-105460000D02*
X84230000Y-103281000D01*
X84230000Y-109719000D02*
X84230000Y-107540000D01*
X84270000Y-105460000D02*
X84270000Y-103250000D01*
X84270000Y-109750000D02*
X84270000Y-107540000D01*
X84310000Y-105460000D02*
X84310000Y-103220000D01*
X84310000Y-109780000D02*
X84310000Y-107540000D01*
X84350000Y-105460000D02*
X84350000Y-103191000D01*
X84350000Y-109809000D02*
X84350000Y-107540000D01*
X84390000Y-105460000D02*
X84390000Y-103163000D01*
X84390000Y-109837000D02*
X84390000Y-107540000D01*
X84430000Y-105460000D02*
X84430000Y-103135000D01*
X84430000Y-109865000D02*
X84430000Y-107540000D01*
X84470000Y-105460000D02*
X84470000Y-103108000D01*
X84470000Y-109892000D02*
X84470000Y-107540000D01*
X84510000Y-105460000D02*
X84510000Y-103082000D01*
X84510000Y-109918000D02*
X84510000Y-107540000D01*
X84550000Y-105460000D02*
X84550000Y-103057000D01*
X84550000Y-109943000D02*
X84550000Y-107540000D01*
X84590000Y-105460000D02*
X84590000Y-103032000D01*
X84590000Y-109968000D02*
X84590000Y-107540000D01*
X84630000Y-105460000D02*
X84630000Y-103007000D01*
X84630000Y-109993000D02*
X84630000Y-107540000D01*
X84670000Y-105460000D02*
X84670000Y-102984000D01*
X84670000Y-110016000D02*
X84670000Y-107540000D01*
X84710000Y-105460000D02*
X84710000Y-102961000D01*
X84710000Y-110039000D02*
X84710000Y-107540000D01*
X84750000Y-105460000D02*
X84750000Y-102938000D01*
X84750000Y-110062000D02*
X84750000Y-107540000D01*
X84790000Y-105460000D02*
X84790000Y-102916000D01*
X84790000Y-110084000D02*
X84790000Y-107540000D01*
X84830000Y-105460000D02*
X84830000Y-102895000D01*
X84830000Y-110105000D02*
X84830000Y-107540000D01*
X84870000Y-105460000D02*
X84870000Y-102874000D01*
X84870000Y-110126000D02*
X84870000Y-107540000D01*
X84910000Y-105460000D02*
X84910000Y-102854000D01*
X84910000Y-110146000D02*
X84910000Y-107540000D01*
X84950000Y-105460000D02*
X84950000Y-102834000D01*
X84950000Y-110166000D02*
X84950000Y-107540000D01*
X84990000Y-105460000D02*
X84990000Y-102815000D01*
X84990000Y-110185000D02*
X84990000Y-107540000D01*
X85030000Y-105460000D02*
X85030000Y-102796000D01*
X85030000Y-110204000D02*
X85030000Y-107540000D01*
X85070000Y-105460000D02*
X85070000Y-102778000D01*
X85070000Y-110222000D02*
X85070000Y-107540000D01*
X85110000Y-105460000D02*
X85110000Y-102760000D01*
X85110000Y-110240000D02*
X85110000Y-107540000D01*
X85150000Y-105460000D02*
X85150000Y-102743000D01*
X85150000Y-110257000D02*
X85150000Y-107540000D01*
X85190000Y-105460000D02*
X85190000Y-102727000D01*
X85190000Y-110273000D02*
X85190000Y-107540000D01*
X85230000Y-105460000D02*
X85230000Y-102711000D01*
X85230000Y-110289000D02*
X85230000Y-107540000D01*
X85270000Y-105460000D02*
X85270000Y-102695000D01*
X85270000Y-110305000D02*
X85270000Y-107540000D01*
X85310000Y-105460000D02*
X85310000Y-102680000D01*
X85310000Y-110320000D02*
X85310000Y-107540000D01*
X85350000Y-105460000D02*
X85350000Y-102665000D01*
X85350000Y-110335000D02*
X85350000Y-107540000D01*
X85390000Y-105460000D02*
X85390000Y-102651000D01*
X85390000Y-110349000D02*
X85390000Y-107540000D01*
X85430000Y-105460000D02*
X85430000Y-102637000D01*
X85430000Y-110363000D02*
X85430000Y-107540000D01*
X85470000Y-105460000D02*
X85470000Y-102624000D01*
X85470000Y-110376000D02*
X85470000Y-107540000D01*
X85510000Y-105460000D02*
X85510000Y-102611000D01*
X85510000Y-110389000D02*
X85510000Y-107540000D01*
X85550000Y-105460000D02*
X85550000Y-102599000D01*
X85550000Y-110401000D02*
X85550000Y-107540000D01*
X85590000Y-105460000D02*
X85590000Y-102587000D01*
X85590000Y-110413000D02*
X85590000Y-107540000D01*
X85630000Y-105460000D02*
X85630000Y-102575000D01*
X85630000Y-110425000D02*
X85630000Y-107540000D01*
X85670000Y-105460000D02*
X85670000Y-102564000D01*
X85670000Y-110436000D02*
X85670000Y-107540000D01*
X85710000Y-105460000D02*
X85710000Y-102553000D01*
X85710000Y-110447000D02*
X85710000Y-107540000D01*
X85750000Y-105460000D02*
X85750000Y-102543000D01*
X85750000Y-110457000D02*
X85750000Y-107540000D01*
X85790000Y-105460000D02*
X85790000Y-102533000D01*
X85790000Y-110467000D02*
X85790000Y-107540000D01*
X85830000Y-105460000D02*
X85830000Y-102524000D01*
X85830000Y-110476000D02*
X85830000Y-107540000D01*
X85870000Y-105460000D02*
X85870000Y-102515000D01*
X85870000Y-110485000D02*
X85870000Y-107540000D01*
X85910000Y-105460000D02*
X85910000Y-102507000D01*
X85910000Y-110493000D02*
X85910000Y-107540000D01*
X85950000Y-105460000D02*
X85950000Y-102498000D01*
X85950000Y-110502000D02*
X85950000Y-107540000D01*
X85990000Y-105460000D02*
X85990000Y-102491000D01*
X85990000Y-110509000D02*
X85990000Y-107540000D01*
X86030000Y-105460000D02*
X86030000Y-102483000D01*
X86030000Y-110517000D02*
X86030000Y-107540000D01*
X86070000Y-110523000D02*
X86070000Y-102477000D01*
X86110000Y-110530000D02*
X86110000Y-102470000D01*
X86150000Y-110536000D02*
X86150000Y-102464000D01*
X86190000Y-110542000D02*
X86190000Y-102458000D01*
X86230000Y-110547000D02*
X86230000Y-102453000D01*
X86270000Y-110552000D02*
X86270000Y-102448000D01*
X86310000Y-110556000D02*
X86310000Y-102444000D01*
X86350000Y-110561000D02*
X86350000Y-102439000D01*
X86390000Y-110564000D02*
X86390000Y-102436000D01*
X86430000Y-110568000D02*
X86430000Y-102432000D01*
X86470000Y-110570000D02*
X86470000Y-102430000D01*
X86510000Y-110573000D02*
X86510000Y-102427000D01*
X86550000Y-110575000D02*
X86550000Y-102425000D01*
X86590000Y-110577000D02*
X86590000Y-102423000D01*
X86630000Y-110578000D02*
X86630000Y-102422000D01*
X86670000Y-110579000D02*
X86670000Y-102421000D01*
X86710000Y-110580000D02*
X86710000Y-102420000D01*
X86750000Y-110580000D02*
X86750000Y-102420000D01*
X90759698Y-109215000D02*
X90759698Y-108415000D01*
X91159698Y-108815000D02*
X90359698Y-108815000D01*
X90870000Y-106500000D02*
G75*
G02*
X82630000Y-106500000I-4120000J0D01*
G01*
X82630000Y-106500000D02*
G75*
G02*
X90870000Y-106500000I4120000J0D01*
G01*
%TO.C,D7*%
X137830000Y-101900000D02*
X152330000Y-101900000D01*
X137830000Y-105400000D02*
X137830000Y-101900000D01*
X137930000Y-105400000D02*
X137830000Y-105400000D01*
X139930000Y-101900000D02*
X139930000Y-103050000D01*
X141880000Y-105400000D02*
X140880000Y-105400000D01*
X145680000Y-105400000D02*
X144530000Y-105400000D01*
X149480000Y-105400000D02*
X148280000Y-105400000D01*
X152330000Y-101900000D02*
X152330000Y-105400000D01*
X152330000Y-105400000D02*
X152130000Y-105400000D01*
%TO.C,U2*%
X123600000Y-102025000D02*
X123600000Y-102975000D01*
X123600000Y-112425000D02*
X123600000Y-111475000D01*
X124965000Y-102025000D02*
X123600000Y-102025000D01*
X124965000Y-112425000D02*
X123600000Y-112425000D01*
X120775000Y-103015000D02*
X120435000Y-102545000D01*
X121115000Y-102545000D01*
X120775000Y-103015000D01*
G36*
X120775000Y-103015000D02*
G01*
X120435000Y-102545000D01*
X121115000Y-102545000D01*
X120775000Y-103015000D01*
G37*
%TO.C,Q1*%
X73010000Y-38850000D02*
X76610000Y-38850000D01*
X72453600Y-35901193D02*
G75*
G02*
X74810000Y-34400000I2356400J-1098807D01*
G01*
X73010000Y-38850000D02*
G75*
G02*
X72485816Y-38122795I1800000J1850000D01*
G01*
X74810000Y-34400000D02*
G75*
G02*
X77166400Y-35901193I0J-2600000D01*
G01*
X77134184Y-38122795D02*
G75*
G02*
X76610000Y-38850000I-2324184J1122795D01*
G01*
%TO.C,D1*%
X83090000Y-35530000D02*
X88530000Y-35530000D01*
X83090000Y-35660000D02*
X83090000Y-35530000D01*
X83090000Y-38340000D02*
X83090000Y-38470000D01*
X83090000Y-38470000D02*
X88530000Y-38470000D01*
D12*
X84794000Y-35857000D02*
X84794000Y-38143000D01*
D11*
X84794000Y-37000000D02*
X83397000Y-37000000D01*
X86953000Y-37000000D02*
X88223000Y-37000000D01*
X88530000Y-35530000D02*
X88530000Y-35660000D01*
X88530000Y-38470000D02*
X88530000Y-38340000D01*
D13*
X86953000Y-38143000D02*
X84794000Y-37000000D01*
X86953000Y-35857000D01*
X86953000Y-38143000D01*
G36*
X86953000Y-38143000D02*
G01*
X84794000Y-37000000D01*
X86953000Y-35857000D01*
X86953000Y-38143000D01*
G37*
D11*
%TO.C,Q6*%
X65200000Y-101350000D02*
X68800000Y-101350000D01*
X64643600Y-98401193D02*
G75*
G02*
X67000000Y-96900000I2356400J-1098807D01*
G01*
X65200000Y-101350000D02*
G75*
G02*
X64675816Y-100622795I1800000J1850000D01*
G01*
X67000000Y-96900000D02*
G75*
G02*
X69356400Y-98401193I0J-2600000D01*
G01*
X69324184Y-100622795D02*
G75*
G02*
X68800000Y-101350000I-2324184J1122795D01*
G01*
%TO.C,J3*%
X31620000Y-69040000D02*
X33000000Y-69040000D01*
X31620000Y-70420000D02*
X31620000Y-69040000D01*
X31620000Y-71690000D02*
X31620000Y-76880000D01*
X31620000Y-71690000D02*
X34380000Y-71690000D01*
X31620000Y-76880000D02*
X34380000Y-76880000D01*
X34380000Y-71690000D02*
X34380000Y-76880000D01*
%TO.C,D6*%
X74470000Y-98030000D02*
X79910000Y-98030000D01*
X74470000Y-98160000D02*
X74470000Y-98030000D01*
X74470000Y-100840000D02*
X74470000Y-100970000D01*
X74470000Y-100970000D02*
X79910000Y-100970000D01*
D12*
X76174000Y-98357000D02*
X76174000Y-100643000D01*
D11*
X76174000Y-99500000D02*
X74777000Y-99500000D01*
X78333000Y-99500000D02*
X79603000Y-99500000D01*
X79910000Y-98030000D02*
X79910000Y-98160000D01*
X79910000Y-100970000D02*
X79910000Y-100840000D01*
D13*
X78333000Y-100643000D02*
X76174000Y-99500000D01*
X78333000Y-98357000D01*
X78333000Y-100643000D01*
G36*
X78333000Y-100643000D02*
G01*
X76174000Y-99500000D01*
X78333000Y-98357000D01*
X78333000Y-100643000D01*
G37*
D11*
%TO.C,R2*%
X75770000Y-55000000D02*
X76540000Y-55000000D01*
X83850000Y-55000000D02*
X83080000Y-55000000D01*
X76540000Y-53630000D02*
X83080000Y-53630000D01*
X83080000Y-56370000D01*
X76540000Y-56370000D01*
X76540000Y-53630000D01*
%TO.C,K4*%
X40920000Y-69480000D02*
X62060000Y-69480000D01*
X40920000Y-80480000D02*
X40920000Y-69480000D01*
X40920000Y-80480000D02*
X62060000Y-80480000D01*
X43870000Y-78790000D02*
X45140000Y-78790000D01*
X44630000Y-73960000D02*
X45140000Y-73960000D01*
X44630000Y-75740000D02*
X45650000Y-74730000D01*
X44630000Y-76500000D02*
X44630000Y-73960000D01*
X45140000Y-71170000D02*
X43870000Y-71170000D01*
X45140000Y-73960000D02*
X45140000Y-71170000D01*
X45140000Y-73960000D02*
X45650000Y-73960000D01*
X45140000Y-76500000D02*
X44630000Y-76500000D01*
X45140000Y-78790000D02*
X45140000Y-76500000D01*
X45650000Y-73960000D02*
X45650000Y-76500000D01*
X45650000Y-76500000D02*
X45140000Y-76500000D01*
X52760000Y-74980000D02*
X57840000Y-74980000D01*
X52760000Y-77520000D02*
X52760000Y-74980000D01*
X57840000Y-74980000D02*
X60630000Y-73580000D01*
X60380000Y-77520000D02*
X60380000Y-76250000D01*
X62060000Y-80480000D02*
X62060000Y-69480000D01*
X57970000Y-74980000D02*
G75*
G02*
X57710000Y-74980000I-130000J0D01*
G01*
X57710000Y-74980000D02*
G75*
G02*
X57970000Y-74980000I130000J0D01*
G01*
%TO.C,K3*%
X40920000Y-56930000D02*
X62060000Y-56930000D01*
X40920000Y-67930000D02*
X40920000Y-56930000D01*
X40920000Y-67930000D02*
X62060000Y-67930000D01*
X43870000Y-66240000D02*
X45140000Y-66240000D01*
X44630000Y-61410000D02*
X45140000Y-61410000D01*
X44630000Y-63190000D02*
X45650000Y-62180000D01*
X44630000Y-63950000D02*
X44630000Y-61410000D01*
X45140000Y-58620000D02*
X43870000Y-58620000D01*
X45140000Y-61410000D02*
X45140000Y-58620000D01*
X45140000Y-61410000D02*
X45650000Y-61410000D01*
X45140000Y-63950000D02*
X44630000Y-63950000D01*
X45140000Y-66240000D02*
X45140000Y-63950000D01*
X45650000Y-61410000D02*
X45650000Y-63950000D01*
X45650000Y-63950000D02*
X45140000Y-63950000D01*
X52760000Y-62430000D02*
X57840000Y-62430000D01*
X52760000Y-64970000D02*
X52760000Y-62430000D01*
X57840000Y-62430000D02*
X60630000Y-61030000D01*
X60380000Y-64970000D02*
X60380000Y-63700000D01*
X62060000Y-67930000D02*
X62060000Y-56930000D01*
X57970000Y-62430000D02*
G75*
G02*
X57710000Y-62430000I-130000J0D01*
G01*
X57710000Y-62430000D02*
G75*
G02*
X57970000Y-62430000I130000J0D01*
G01*
%TO.C,C9*%
X84880000Y-97130000D02*
X90120000Y-97130000D01*
X84880000Y-99870000D02*
X84880000Y-97130000D01*
X90120000Y-97130000D02*
X90120000Y-99870000D01*
X90120000Y-99870000D02*
X84880000Y-99870000D01*
%TO.C,Q2*%
X73010000Y-51350000D02*
X76610000Y-51350000D01*
X72453600Y-48401193D02*
G75*
G02*
X74810000Y-46900000I2356400J-1098807D01*
G01*
X73010000Y-51350000D02*
G75*
G02*
X72485816Y-50622795I1800000J1850000D01*
G01*
X74810000Y-46900000D02*
G75*
G02*
X77166400Y-48401193I0J-2600000D01*
G01*
X77134184Y-50622795D02*
G75*
G02*
X76610000Y-51350000I-2324184J1122795D01*
G01*
%TO.C,D8*%
X108600000Y-103000000D02*
X108600000Y-113000000D01*
X108600000Y-113000000D02*
X115400000Y-113000000D01*
X115400000Y-103000000D02*
X108600000Y-103000000D01*
X115400000Y-113000000D02*
X115400000Y-103000000D01*
D13*
X108600000Y-111500000D02*
X108100000Y-111500000D01*
X108100000Y-109800000D01*
X108600000Y-109800000D01*
X108600000Y-111500000D01*
G36*
X108600000Y-111500000D02*
G01*
X108100000Y-111500000D01*
X108100000Y-109800000D01*
X108600000Y-109800000D01*
X108600000Y-111500000D01*
G37*
X115900000Y-111500000D02*
X115400000Y-111500000D01*
X115400000Y-109800000D01*
X115900000Y-109800000D01*
X115900000Y-111500000D01*
G36*
X115900000Y-111500000D02*
G01*
X115400000Y-111500000D01*
X115400000Y-109800000D01*
X115900000Y-109800000D01*
X115900000Y-111500000D01*
G37*
D11*
%TO.C,R4*%
X75770000Y-80000000D02*
X76540000Y-80000000D01*
X83850000Y-80000000D02*
X83080000Y-80000000D01*
X76540000Y-78630000D02*
X83080000Y-78630000D01*
X83080000Y-81370000D01*
X76540000Y-81370000D01*
X76540000Y-78630000D01*
%TO.C,L1*%
X93250000Y-100250000D02*
X93250000Y-103000000D01*
X93250000Y-109000000D02*
X93250000Y-111750000D01*
X93900000Y-99600000D02*
X105400000Y-99600000D01*
X105400000Y-112400000D02*
X93900000Y-112400000D01*
X106050000Y-100250000D02*
X106050000Y-103000000D01*
X106050000Y-109000000D02*
X106050000Y-111750000D01*
X93250000Y-100250000D02*
G75*
G02*
X93900000Y-99600000I650001J-1D01*
G01*
X93900000Y-112400000D02*
G75*
G02*
X93250000Y-111750000I1J650001D01*
G01*
X105400000Y-99600000D02*
G75*
G02*
X106050000Y-100250000I0J-650000D01*
G01*
X106050000Y-111750000D02*
G75*
G02*
X105400000Y-112400000I-650000J0D01*
G01*
%TO.C,C5*%
X136047709Y-69445000D02*
X137647709Y-69445000D01*
X136847709Y-68645000D02*
X136847709Y-70245000D01*
X144737200Y-65920000D02*
X144737200Y-82080000D01*
X144777200Y-65920000D02*
X144777200Y-82080000D01*
X144817200Y-65920000D02*
X144817200Y-82080000D01*
X144857200Y-65921000D02*
X144857200Y-82079000D01*
X144897200Y-65922000D02*
X144897200Y-82078000D01*
X144937200Y-65922000D02*
X144937200Y-82078000D01*
X144977200Y-65924000D02*
X144977200Y-82076000D01*
X145017200Y-65925000D02*
X145017200Y-82075000D01*
X145057200Y-65926000D02*
X145057200Y-82074000D01*
X145097200Y-65928000D02*
X145097200Y-82072000D01*
X145137200Y-65930000D02*
X145137200Y-82070000D01*
X145177200Y-65932000D02*
X145177200Y-82068000D01*
X145217200Y-65934000D02*
X145217200Y-82066000D01*
X145257200Y-65937000D02*
X145257200Y-82063000D01*
X145297200Y-65939000D02*
X145297200Y-82061000D01*
X145337200Y-65942000D02*
X145337200Y-82058000D01*
X145377200Y-65945000D02*
X145377200Y-82055000D01*
X145417200Y-65949000D02*
X145417200Y-82051000D01*
X145457200Y-65952000D02*
X145457200Y-82048000D01*
X145497200Y-65956000D02*
X145497200Y-82044000D01*
X145537200Y-65960000D02*
X145537200Y-82040000D01*
X145577200Y-65964000D02*
X145577200Y-82036000D01*
X145617200Y-65968000D02*
X145617200Y-82032000D01*
X145657200Y-65972000D02*
X145657200Y-82028000D01*
X145697200Y-65977000D02*
X145697200Y-82023000D01*
X145737200Y-65982000D02*
X145737200Y-82018000D01*
X145777200Y-65987000D02*
X145777200Y-82013000D01*
X145817200Y-65992000D02*
X145817200Y-82008000D01*
X145857200Y-65998000D02*
X145857200Y-82002000D01*
X145897200Y-66003000D02*
X145897200Y-81997000D01*
X145937200Y-66009000D02*
X145937200Y-81991000D01*
X145977200Y-66015000D02*
X145977200Y-81985000D01*
X146017200Y-66022000D02*
X146017200Y-81978000D01*
X146057200Y-66028000D02*
X146057200Y-81972000D01*
X146097200Y-66035000D02*
X146097200Y-81965000D01*
X146137200Y-66042000D02*
X146137200Y-81958000D01*
X146177200Y-66049000D02*
X146177200Y-81951000D01*
X146217200Y-66056000D02*
X146217200Y-81944000D01*
X146257200Y-66064000D02*
X146257200Y-81936000D01*
X146297200Y-66071000D02*
X146297200Y-81929000D01*
X146337200Y-66079000D02*
X146337200Y-81921000D01*
X146377200Y-66087000D02*
X146377200Y-81913000D01*
X146417200Y-66096000D02*
X146417200Y-81904000D01*
X146457200Y-66104000D02*
X146457200Y-81896000D01*
X146497200Y-66113000D02*
X146497200Y-81887000D01*
X146537200Y-66122000D02*
X146537200Y-81878000D01*
X146577200Y-66131000D02*
X146577200Y-81869000D01*
X146617200Y-66141000D02*
X146617200Y-81859000D01*
X146657200Y-66150000D02*
X146657200Y-81850000D01*
X146697200Y-66160000D02*
X146697200Y-81840000D01*
X146737200Y-66170000D02*
X146737200Y-81830000D01*
X146777200Y-66180000D02*
X146777200Y-81820000D01*
X146817200Y-66191000D02*
X146817200Y-81809000D01*
X146857200Y-66202000D02*
X146857200Y-81798000D01*
X146897200Y-66213000D02*
X146897200Y-81787000D01*
X146937200Y-66224000D02*
X146937200Y-81776000D01*
X146977200Y-66235000D02*
X146977200Y-81765000D01*
X147017200Y-66247000D02*
X147017200Y-81753000D01*
X147057200Y-66258000D02*
X147057200Y-72560000D01*
X147057200Y-75440000D02*
X147057200Y-81742000D01*
X147097200Y-66271000D02*
X147097200Y-72560000D01*
X147097200Y-75440000D02*
X147097200Y-81729000D01*
X147137200Y-66283000D02*
X147137200Y-72560000D01*
X147137200Y-75440000D02*
X147137200Y-81717000D01*
X147177200Y-66295000D02*
X147177200Y-72560000D01*
X147177200Y-75440000D02*
X147177200Y-81705000D01*
X147217200Y-66308000D02*
X147217200Y-72560000D01*
X147217200Y-75440000D02*
X147217200Y-81692000D01*
X147257200Y-66321000D02*
X147257200Y-72560000D01*
X147257200Y-75440000D02*
X147257200Y-81679000D01*
X147297200Y-66334000D02*
X147297200Y-72560000D01*
X147297200Y-75440000D02*
X147297200Y-81666000D01*
X147337200Y-66348000D02*
X147337200Y-72560000D01*
X147337200Y-75440000D02*
X147337200Y-81652000D01*
X147377200Y-66361000D02*
X147377200Y-72560000D01*
X147377200Y-75440000D02*
X147377200Y-81639000D01*
X147417200Y-66375000D02*
X147417200Y-72560000D01*
X147417200Y-75440000D02*
X147417200Y-81625000D01*
X147457200Y-66389000D02*
X147457200Y-72560000D01*
X147457200Y-75440000D02*
X147457200Y-81611000D01*
X147497200Y-66403000D02*
X147497200Y-72560000D01*
X147497200Y-75440000D02*
X147497200Y-81597000D01*
X147537200Y-66418000D02*
X147537200Y-72560000D01*
X147537200Y-75440000D02*
X147537200Y-81582000D01*
X147577200Y-66433000D02*
X147577200Y-72560000D01*
X147577200Y-75440000D02*
X147577200Y-81567000D01*
X147617200Y-66448000D02*
X147617200Y-72560000D01*
X147617200Y-75440000D02*
X147617200Y-81552000D01*
X147657200Y-66463000D02*
X147657200Y-72560000D01*
X147657200Y-75440000D02*
X147657200Y-81537000D01*
X147697200Y-66479000D02*
X147697200Y-72560000D01*
X147697200Y-75440000D02*
X147697200Y-81521000D01*
X147737200Y-66495000D02*
X147737200Y-72560000D01*
X147737200Y-75440000D02*
X147737200Y-81505000D01*
X147777200Y-66511000D02*
X147777200Y-72560000D01*
X147777200Y-75440000D02*
X147777200Y-81489000D01*
X147817200Y-66527000D02*
X147817200Y-72560000D01*
X147817200Y-75440000D02*
X147817200Y-81473000D01*
X147857200Y-66543000D02*
X147857200Y-72560000D01*
X147857200Y-75440000D02*
X147857200Y-81457000D01*
X147897200Y-66560000D02*
X147897200Y-72560000D01*
X147897200Y-75440000D02*
X147897200Y-81440000D01*
X147937200Y-66577000D02*
X147937200Y-72560000D01*
X147937200Y-75440000D02*
X147937200Y-81423000D01*
X147977200Y-66594000D02*
X147977200Y-72560000D01*
X147977200Y-75440000D02*
X147977200Y-81406000D01*
X148017200Y-66612000D02*
X148017200Y-72560000D01*
X148017200Y-75440000D02*
X148017200Y-81388000D01*
X148057200Y-66630000D02*
X148057200Y-72560000D01*
X148057200Y-75440000D02*
X148057200Y-81370000D01*
X148097200Y-66648000D02*
X148097200Y-72560000D01*
X148097200Y-75440000D02*
X148097200Y-81352000D01*
X148137200Y-66666000D02*
X148137200Y-72560000D01*
X148137200Y-75440000D02*
X148137200Y-81334000D01*
X148177200Y-66685000D02*
X148177200Y-72560000D01*
X148177200Y-75440000D02*
X148177200Y-81315000D01*
X148217200Y-66704000D02*
X148217200Y-72560000D01*
X148217200Y-75440000D02*
X148217200Y-81296000D01*
X148257200Y-66723000D02*
X148257200Y-72560000D01*
X148257200Y-75440000D02*
X148257200Y-81277000D01*
X148297200Y-66742000D02*
X148297200Y-72560000D01*
X148297200Y-75440000D02*
X148297200Y-81258000D01*
X148337200Y-66762000D02*
X148337200Y-72560000D01*
X148337200Y-75440000D02*
X148337200Y-81238000D01*
X148377200Y-66782000D02*
X148377200Y-72560000D01*
X148377200Y-75440000D02*
X148377200Y-81218000D01*
X148417200Y-66802000D02*
X148417200Y-72560000D01*
X148417200Y-75440000D02*
X148417200Y-81198000D01*
X148457200Y-66822000D02*
X148457200Y-72560000D01*
X148457200Y-75440000D02*
X148457200Y-81178000D01*
X148497200Y-66843000D02*
X148497200Y-72560000D01*
X148497200Y-75440000D02*
X148497200Y-81157000D01*
X148537200Y-66864000D02*
X148537200Y-72560000D01*
X148537200Y-75440000D02*
X148537200Y-81136000D01*
X148577200Y-66885000D02*
X148577200Y-72560000D01*
X148577200Y-75440000D02*
X148577200Y-81115000D01*
X148617200Y-66907000D02*
X148617200Y-72560000D01*
X148617200Y-75440000D02*
X148617200Y-81093000D01*
X148657200Y-66929000D02*
X148657200Y-72560000D01*
X148657200Y-75440000D02*
X148657200Y-81071000D01*
X148697200Y-66951000D02*
X148697200Y-72560000D01*
X148697200Y-75440000D02*
X148697200Y-81049000D01*
X148737200Y-66974000D02*
X148737200Y-72560000D01*
X148737200Y-75440000D02*
X148737200Y-81026000D01*
X148777200Y-66996000D02*
X148777200Y-72560000D01*
X148777200Y-75440000D02*
X148777200Y-81004000D01*
X148817200Y-67019000D02*
X148817200Y-72560000D01*
X148817200Y-75440000D02*
X148817200Y-80981000D01*
X148857200Y-67043000D02*
X148857200Y-72560000D01*
X148857200Y-75440000D02*
X148857200Y-80957000D01*
X148897200Y-67067000D02*
X148897200Y-72560000D01*
X148897200Y-75440000D02*
X148897200Y-80933000D01*
X148937200Y-67091000D02*
X148937200Y-72560000D01*
X148937200Y-75440000D02*
X148937200Y-80909000D01*
X148977200Y-67115000D02*
X148977200Y-72560000D01*
X148977200Y-75440000D02*
X148977200Y-80885000D01*
X149017200Y-67140000D02*
X149017200Y-72560000D01*
X149017200Y-75440000D02*
X149017200Y-80860000D01*
X149057200Y-67165000D02*
X149057200Y-72560000D01*
X149057200Y-75440000D02*
X149057200Y-80835000D01*
X149097200Y-67190000D02*
X149097200Y-72560000D01*
X149097200Y-75440000D02*
X149097200Y-80810000D01*
X149137200Y-67215000D02*
X149137200Y-72560000D01*
X149137200Y-75440000D02*
X149137200Y-80785000D01*
X149177200Y-67241000D02*
X149177200Y-72560000D01*
X149177200Y-75440000D02*
X149177200Y-80759000D01*
X149217200Y-67268000D02*
X149217200Y-72560000D01*
X149217200Y-75440000D02*
X149217200Y-80732000D01*
X149257200Y-67294000D02*
X149257200Y-72560000D01*
X149257200Y-75440000D02*
X149257200Y-80706000D01*
X149297200Y-67321000D02*
X149297200Y-72560000D01*
X149297200Y-75440000D02*
X149297200Y-80679000D01*
X149337200Y-67349000D02*
X149337200Y-72560000D01*
X149337200Y-75440000D02*
X149337200Y-80651000D01*
X149377200Y-67376000D02*
X149377200Y-72560000D01*
X149377200Y-75440000D02*
X149377200Y-80624000D01*
X149417200Y-67404000D02*
X149417200Y-72560000D01*
X149417200Y-75440000D02*
X149417200Y-80596000D01*
X149457200Y-67433000D02*
X149457200Y-72560000D01*
X149457200Y-75440000D02*
X149457200Y-80567000D01*
X149497200Y-67461000D02*
X149497200Y-72560000D01*
X149497200Y-75440000D02*
X149497200Y-80539000D01*
X149537200Y-67491000D02*
X149537200Y-72560000D01*
X149537200Y-75440000D02*
X149537200Y-80509000D01*
X149577200Y-67520000D02*
X149577200Y-72560000D01*
X149577200Y-75440000D02*
X149577200Y-80480000D01*
X149617200Y-67550000D02*
X149617200Y-72560000D01*
X149617200Y-75440000D02*
X149617200Y-80450000D01*
X149657200Y-67580000D02*
X149657200Y-72560000D01*
X149657200Y-75440000D02*
X149657200Y-80420000D01*
X149697200Y-67611000D02*
X149697200Y-72560000D01*
X149697200Y-75440000D02*
X149697200Y-80389000D01*
X149737200Y-67642000D02*
X149737200Y-72560000D01*
X149737200Y-75440000D02*
X149737200Y-80358000D01*
X149777200Y-67673000D02*
X149777200Y-72560000D01*
X149777200Y-75440000D02*
X149777200Y-80327000D01*
X149817200Y-67705000D02*
X149817200Y-72560000D01*
X149817200Y-75440000D02*
X149817200Y-80295000D01*
X149857200Y-67738000D02*
X149857200Y-72560000D01*
X149857200Y-75440000D02*
X149857200Y-80262000D01*
X149897200Y-67770000D02*
X149897200Y-72560000D01*
X149897200Y-75440000D02*
X149897200Y-80230000D01*
X149937200Y-67803000D02*
X149937200Y-80197000D01*
X149977200Y-67837000D02*
X149977200Y-80163000D01*
X150017200Y-67871000D02*
X150017200Y-80129000D01*
X150057200Y-67906000D02*
X150057200Y-80094000D01*
X150097200Y-67940000D02*
X150097200Y-80060000D01*
X150137200Y-67976000D02*
X150137200Y-80024000D01*
X150177200Y-68012000D02*
X150177200Y-79988000D01*
X150217200Y-68048000D02*
X150217200Y-79952000D01*
X150257200Y-68085000D02*
X150257200Y-79915000D01*
X150297200Y-68122000D02*
X150297200Y-79878000D01*
X150337200Y-68160000D02*
X150337200Y-79840000D01*
X150377200Y-68198000D02*
X150377200Y-79802000D01*
X150417200Y-68237000D02*
X150417200Y-79763000D01*
X150457200Y-68277000D02*
X150457200Y-79723000D01*
X150497200Y-68317000D02*
X150497200Y-79683000D01*
X150537200Y-68357000D02*
X150537200Y-79643000D01*
X150577200Y-68398000D02*
X150577200Y-79602000D01*
X150617200Y-68440000D02*
X150617200Y-79560000D01*
X150657200Y-68482000D02*
X150657200Y-79518000D01*
X150697200Y-68525000D02*
X150697200Y-79475000D01*
X150737200Y-68569000D02*
X150737200Y-79431000D01*
X150777200Y-68613000D02*
X150777200Y-79387000D01*
X150817200Y-68658000D02*
X150817200Y-79342000D01*
X150857200Y-68703000D02*
X150857200Y-79297000D01*
X150897200Y-68750000D02*
X150897200Y-79250000D01*
X150937200Y-68796000D02*
X150937200Y-79204000D01*
X150977200Y-68844000D02*
X150977200Y-79156000D01*
X151017200Y-68893000D02*
X151017200Y-79107000D01*
X151057200Y-68942000D02*
X151057200Y-79058000D01*
X151097200Y-68992000D02*
X151097200Y-79008000D01*
X151137200Y-69043000D02*
X151137200Y-78957000D01*
X151177200Y-69094000D02*
X151177200Y-78906000D01*
X151217200Y-69147000D02*
X151217200Y-78853000D01*
X151257200Y-69200000D02*
X151257200Y-78800000D01*
X151297200Y-69255000D02*
X151297200Y-78745000D01*
X151337200Y-69310000D02*
X151337200Y-78690000D01*
X151377200Y-69366000D02*
X151377200Y-78634000D01*
X151417200Y-69424000D02*
X151417200Y-78576000D01*
X151457200Y-69482000D02*
X151457200Y-78518000D01*
X151497200Y-69541000D02*
X151497200Y-78459000D01*
X151537200Y-69602000D02*
X151537200Y-78398000D01*
X151577200Y-69664000D02*
X151577200Y-78336000D01*
X151617200Y-69727000D02*
X151617200Y-78273000D01*
X151657200Y-69792000D02*
X151657200Y-78208000D01*
X151697200Y-69858000D02*
X151697200Y-78142000D01*
X151737200Y-69925000D02*
X151737200Y-78075000D01*
X151777200Y-69994000D02*
X151777200Y-78006000D01*
X151817200Y-70064000D02*
X151817200Y-77936000D01*
X151857200Y-70136000D02*
X151857200Y-77864000D01*
X151897200Y-70210000D02*
X151897200Y-77790000D01*
X151937200Y-70286000D02*
X151937200Y-77714000D01*
X151977200Y-70363000D02*
X151977200Y-77637000D01*
X152017200Y-70443000D02*
X152017200Y-77557000D01*
X152057200Y-70525000D02*
X152057200Y-77475000D01*
X152097200Y-70610000D02*
X152097200Y-77390000D01*
X152137200Y-70697000D02*
X152137200Y-77303000D01*
X152177200Y-70787000D02*
X152177200Y-77213000D01*
X152217200Y-70880000D02*
X152217200Y-77120000D01*
X152257200Y-70977000D02*
X152257200Y-77023000D01*
X152297200Y-71077000D02*
X152297200Y-76923000D01*
X152337200Y-71181000D02*
X152337200Y-76819000D01*
X152377200Y-71290000D02*
X152377200Y-76710000D01*
X152417200Y-71403000D02*
X152417200Y-76597000D01*
X152457200Y-71523000D02*
X152457200Y-76477000D01*
X152497200Y-71649000D02*
X152497200Y-76351000D01*
X152537200Y-71783000D02*
X152537200Y-76217000D01*
X152577200Y-71926000D02*
X152577200Y-76074000D01*
X152617200Y-72080000D02*
X152617200Y-75920000D01*
X152657200Y-72249000D02*
X152657200Y-75751000D01*
X152697200Y-72436000D02*
X152697200Y-75564000D01*
X152737200Y-72649000D02*
X152737200Y-75351000D01*
X152777200Y-72903000D02*
X152777200Y-75097000D01*
X152817200Y-73235000D02*
X152817200Y-74765000D01*
X152857200Y-74000000D02*
G75*
G02*
X136617200Y-74000000I-8120000J0D01*
G01*
X136617200Y-74000000D02*
G75*
G02*
X152857200Y-74000000I8120000J0D01*
G01*
%TD*%
%LPC*%
D17*
%TO.C,H3*%
X151000000Y-114000000D03*
%TD*%
D18*
%TO.C,K1*%
X42600000Y-41140000D03*
D19*
X52760000Y-41140000D03*
X60380000Y-41140000D03*
X42600000Y-33520000D03*
%TD*%
D20*
%TO.C,U3*%
X31597500Y-102287500D03*
D21*
X31597500Y-104827500D03*
X31597500Y-107367500D03*
X31597500Y-109907500D03*
%TD*%
D20*
%TO.C,Q3*%
X72270000Y-62000000D03*
D21*
X74810000Y-62000000D03*
X77350000Y-62000000D03*
%TD*%
D18*
%TO.C,K6*%
X42600000Y-103890000D03*
D19*
X52760000Y-103890000D03*
X60380000Y-103890000D03*
X42600000Y-96270000D03*
%TD*%
D22*
%TO.C,J2*%
X33500000Y-34000000D03*
D23*
X33500000Y-37500000D03*
X33500000Y-41000000D03*
X33500000Y-44500000D03*
X33500000Y-48000000D03*
X33500000Y-51500000D03*
X33500000Y-55000000D03*
X33500000Y-58500000D03*
X33500000Y-62000000D03*
%TD*%
D24*
%TO.C,D4*%
X81690000Y-74500000D03*
D25*
X89310000Y-74500000D03*
%TD*%
D26*
%TO.C,J1*%
X95810000Y-40560000D03*
D27*
X95810000Y-43100000D03*
X95810000Y-45640000D03*
X95810000Y-48180000D03*
X95810000Y-50720000D03*
X95810000Y-53260000D03*
X95810000Y-55800000D03*
X95810000Y-58340000D03*
X95810000Y-60880000D03*
X95810000Y-63420000D03*
X95810000Y-65960000D03*
X95810000Y-68500000D03*
X95810000Y-71040000D03*
X95810000Y-73580000D03*
X95810000Y-76120000D03*
X95810000Y-78660000D03*
X95810000Y-81200000D03*
X95810000Y-83740000D03*
%TD*%
D17*
%TO.C,H2*%
X25000000Y-114000000D03*
%TD*%
D28*
%TO.C,C6*%
X146500000Y-59500000D03*
X144000000Y-59500000D03*
%TD*%
%TO.C,R7*%
X38000000Y-68420000D03*
X38000000Y-78580000D03*
%TD*%
D20*
%TO.C,Q4*%
X72270000Y-74500000D03*
D21*
X74810000Y-74500000D03*
X77350000Y-74500000D03*
%TD*%
D24*
%TO.C,D3*%
X81690000Y-62000000D03*
D25*
X89310000Y-62000000D03*
%TD*%
D29*
%TO.C,H6*%
X67000000Y-93000000D03*
%TD*%
D24*
%TO.C,D2*%
X82000000Y-49500000D03*
D25*
X89620000Y-49500000D03*
%TD*%
D20*
%TO.C,Q5*%
X72310000Y-87000000D03*
D21*
X74850000Y-87000000D03*
X77390000Y-87000000D03*
%TD*%
D18*
%TO.C,K5*%
X42600000Y-91340000D03*
D19*
X52760000Y-91340000D03*
X60380000Y-91340000D03*
X42600000Y-83720000D03*
%TD*%
D28*
%TO.C,R1*%
X74730000Y-42500000D03*
X84890000Y-42500000D03*
%TD*%
D30*
%TO.C,A1*%
X131250600Y-85245000D03*
X131250600Y-82705000D03*
X131250600Y-80165000D03*
X131250600Y-77625000D03*
X131250600Y-75085000D03*
X131250600Y-72545000D03*
X131250600Y-70005000D03*
X131250600Y-67465000D03*
X131250600Y-64925000D03*
X131250600Y-62385000D03*
X131250600Y-59845000D03*
X131250600Y-57305000D03*
X131250600Y-54765000D03*
X131250600Y-52225000D03*
X131250600Y-49685000D03*
X105850600Y-49685000D03*
X105850600Y-52225000D03*
X105850600Y-54765000D03*
X105850600Y-57305000D03*
X105850600Y-59845000D03*
X105850600Y-62385000D03*
X105850600Y-64925000D03*
X105850600Y-67465000D03*
X105850600Y-70005000D03*
X105850600Y-72545000D03*
X105850600Y-75085000D03*
X105850600Y-77625000D03*
X105850600Y-80165000D03*
X105850600Y-82705000D03*
X105850600Y-85245000D03*
%TD*%
D29*
%TO.C,H7*%
X67000000Y-44100000D03*
%TD*%
D24*
%TO.C,D5*%
X81500000Y-88000000D03*
D25*
X89120000Y-88000000D03*
%TD*%
D18*
%TO.C,K2*%
X42600000Y-53690000D03*
D19*
X52760000Y-53690000D03*
X60380000Y-53690000D03*
X42600000Y-46070000D03*
%TD*%
D28*
%TO.C,R6*%
X66920000Y-105000000D03*
X77080000Y-105000000D03*
%TD*%
D17*
%TO.C,H1*%
X25000000Y-31500000D03*
%TD*%
D28*
%TO.C,R5*%
X74650000Y-92500000D03*
X84810000Y-92500000D03*
%TD*%
%TO.C,R3*%
X74730000Y-68000000D03*
X84890000Y-68000000D03*
%TD*%
D31*
%TO.C,C8*%
X88500000Y-106500000D03*
D28*
X85000000Y-106500000D03*
%TD*%
D32*
%TO.C,D7*%
X139380000Y-104500000D03*
D23*
X143190000Y-104500000D03*
X147000000Y-104500000D03*
X150810000Y-104500000D03*
%TD*%
D33*
%TO.C,U2*%
X120775000Y-103825000D03*
X120775000Y-105525000D03*
X120775000Y-107225000D03*
D34*
X129925000Y-107225000D03*
D33*
X120775000Y-108925000D03*
X120775000Y-110625000D03*
%TD*%
D20*
%TO.C,Q1*%
X72270000Y-37000000D03*
D21*
X74810000Y-37000000D03*
X77350000Y-37000000D03*
%TD*%
D24*
%TO.C,D1*%
X82000000Y-37000000D03*
D25*
X89620000Y-37000000D03*
%TD*%
D20*
%TO.C,Q6*%
X64460000Y-99500000D03*
D21*
X67000000Y-99500000D03*
X69540000Y-99500000D03*
%TD*%
D26*
%TO.C,J3*%
X33000000Y-70420000D03*
D27*
X33000000Y-72960000D03*
X33000000Y-75500000D03*
%TD*%
D24*
%TO.C,D6*%
X73380000Y-99500000D03*
D25*
X81000000Y-99500000D03*
%TD*%
D28*
%TO.C,R2*%
X74730000Y-55000000D03*
X84890000Y-55000000D03*
%TD*%
D18*
%TO.C,K4*%
X42600000Y-78790000D03*
D19*
X52760000Y-78790000D03*
X60380000Y-78790000D03*
X42600000Y-71170000D03*
%TD*%
D18*
%TO.C,K3*%
X42600000Y-66240000D03*
D19*
X52760000Y-66240000D03*
X60380000Y-66240000D03*
X42600000Y-58620000D03*
%TD*%
D29*
%TO.C,*%
X67000000Y-93000000D03*
%TD*%
%TO.C,H5*%
X150110000Y-93000000D03*
%TD*%
D28*
%TO.C,C9*%
X88750000Y-98500000D03*
X86250000Y-98500000D03*
%TD*%
D20*
%TO.C,Q2*%
X72270000Y-49500000D03*
D21*
X74810000Y-49500000D03*
X77350000Y-49500000D03*
%TD*%
D35*
%TO.C,D8*%
X112000000Y-111400000D03*
X112000000Y-104600000D03*
%TD*%
D17*
%TO.C,H4*%
X151000000Y-31500000D03*
%TD*%
D28*
%TO.C,R4*%
X74730000Y-80000000D03*
X84890000Y-80000000D03*
%TD*%
D29*
%TO.C,H8*%
X150110000Y-44100000D03*
%TD*%
D36*
%TO.C,L1*%
X94800000Y-106000000D03*
X104500000Y-106000000D03*
%TD*%
D37*
%TO.C,C5*%
X140987200Y-74000000D03*
D23*
X148487200Y-74000000D03*
%TD*%
D26*
%TO.C,J4*%
X66000000Y-85040000D03*
D27*
X66000000Y-82500000D03*
X66000000Y-79960000D03*
X66000000Y-77420000D03*
X66000000Y-74880000D03*
X66000000Y-72340000D03*
X66000000Y-69800000D03*
X66000000Y-67260000D03*
X66000000Y-64720000D03*
X66000000Y-62180000D03*
X66000000Y-59640000D03*
X66000000Y-57100000D03*
X66000000Y-54560000D03*
X66000000Y-52020000D03*
%TD*%
%LPD*%
M02*
