%TF.GenerationSoftware,KiCad,Pcbnew,9.0.6-9.0.6~ubuntu22.04.1*%
%TF.CreationDate,2025-11-18T11:24:41-06:00*%
%TF.ProjectId,ESP32-Simple-Thermostat-PCB,45535033-322d-4536-996d-706c652d5468,rev?*%
%TF.SameCoordinates,Original*%
%TF.FileFunction,Soldermask,Top*%
%TF.FilePolarity,Negative*%
%FSLAX46Y46*%
G04 Gerber Fmt 4.6, Leading zero omitted, Abs format (unit mm)*
G04 Created by KiCad (PCBNEW 9.0.6-9.0.6~ubuntu22.04.1) date 2025-11-18 11:24:41*
%MOMM*%
%LPD*%
G01*
G04 APERTURE LIST*
G04 Aperture macros list*
%AMRoundRect*
0 Rectangle with rounded corners*
0 $1 Rounding radius*
0 $2 $3 $4 $5 $6 $7 $8 $9 X,Y pos of 4 corners*
0 Add a 4 corners polygon primitive as box body*
4,1,4,$2,$3,$4,$5,$6,$7,$8,$9,$2,$3,0*
0 Add four circle primitives for the rounded corners*
1,1,$1+$1,$2,$3*
1,1,$1+$1,$4,$5*
1,1,$1+$1,$6,$7*
1,1,$1+$1,$8,$9*
0 Add four rect primitives between the rounded corners*
20,1,$1+$1,$2,$3,$4,$5,0*
20,1,$1+$1,$4,$5,$6,$7,0*
20,1,$1+$1,$6,$7,$8,$9,0*
20,1,$1+$1,$8,$9,$2,$3,0*%
G04 Aperture macros list end*
%ADD10C,6.000000*%
%ADD11R,2.300000X2.300000*%
%ADD12C,2.300000*%
%ADD13R,1.500000X1.500000*%
%ADD14C,1.500000*%
%ADD15RoundRect,0.250001X-0.949999X0.949999X-0.949999X-0.949999X0.949999X-0.949999X0.949999X0.949999X0*%
%ADD16C,2.400000*%
%ADD17R,2.200000X2.200000*%
%ADD18O,2.200000X2.200000*%
%ADD19R,1.700000X1.700000*%
%ADD20C,1.700000*%
%ADD21C,1.600000*%
%ADD22O,2.400000X1.800000*%
%ADD23RoundRect,0.250000X0.550000X0.550000X-0.550000X0.550000X-0.550000X-0.550000X0.550000X-0.550000X0*%
%ADD24R,2.400000X2.400000*%
%ADD25RoundRect,0.250000X-2.050000X-0.300000X2.050000X-0.300000X2.050000X0.300000X-2.050000X0.300000X0*%
%ADD26RoundRect,0.250002X-4.449998X-5.149998X4.449998X-5.149998X4.449998X5.149998X-4.449998X5.149998X0*%
%ADD27RoundRect,0.250000X1.400000X1.000000X-1.400000X1.000000X-1.400000X-1.000000X1.400000X-1.000000X0*%
%ADD28R,2.900000X5.400000*%
%ADD29RoundRect,0.250001X-0.949999X-0.949999X0.949999X-0.949999X0.949999X0.949999X-0.949999X0.949999X0*%
G04 APERTURE END LIST*
D10*
%TO.C,H3*%
X151000000Y-114000000D03*
%TD*%
D11*
%TO.C,K1*%
X42600000Y-41140000D03*
D12*
X52760000Y-41140000D03*
X60380000Y-41140000D03*
X42600000Y-33520000D03*
%TD*%
D13*
%TO.C,U3*%
X31597500Y-102287500D03*
D14*
X31597500Y-104827500D03*
X31597500Y-107367500D03*
X31597500Y-109907500D03*
%TD*%
D13*
%TO.C,Q3*%
X72270000Y-62000000D03*
D14*
X74810000Y-62000000D03*
X77350000Y-62000000D03*
%TD*%
D11*
%TO.C,K6*%
X42600000Y-103890000D03*
D12*
X52760000Y-103890000D03*
X60380000Y-103890000D03*
X42600000Y-96270000D03*
%TD*%
D15*
%TO.C,J2*%
X33500000Y-34000000D03*
D16*
X33500000Y-37500000D03*
X33500000Y-41000000D03*
X33500000Y-44500000D03*
X33500000Y-48000000D03*
X33500000Y-51500000D03*
X33500000Y-55000000D03*
X33500000Y-58500000D03*
X33500000Y-62000000D03*
%TD*%
D17*
%TO.C,D4*%
X81690000Y-74500000D03*
D18*
X89310000Y-74500000D03*
%TD*%
D19*
%TO.C,J1*%
X95810000Y-40560000D03*
D20*
X95810000Y-43100000D03*
X95810000Y-45640000D03*
X95810000Y-48180000D03*
X95810000Y-50720000D03*
X95810000Y-53260000D03*
X95810000Y-55800000D03*
X95810000Y-58340000D03*
X95810000Y-60880000D03*
X95810000Y-63420000D03*
X95810000Y-65960000D03*
X95810000Y-68500000D03*
X95810000Y-71040000D03*
X95810000Y-73580000D03*
X95810000Y-76120000D03*
X95810000Y-78660000D03*
X95810000Y-81200000D03*
X95810000Y-83740000D03*
%TD*%
D10*
%TO.C,H2*%
X25000000Y-114000000D03*
%TD*%
D21*
%TO.C,C6*%
X146500000Y-59500000D03*
X144000000Y-59500000D03*
%TD*%
%TO.C,R7*%
X38000000Y-68420000D03*
X38000000Y-78580000D03*
%TD*%
D13*
%TO.C,Q4*%
X72270000Y-74500000D03*
D14*
X74810000Y-74500000D03*
X77350000Y-74500000D03*
%TD*%
D17*
%TO.C,D3*%
X81690000Y-62000000D03*
D18*
X89310000Y-62000000D03*
%TD*%
D17*
%TO.C,D2*%
X82000000Y-49500000D03*
D18*
X89620000Y-49500000D03*
%TD*%
D13*
%TO.C,Q5*%
X72310000Y-87000000D03*
D14*
X74850000Y-87000000D03*
X77390000Y-87000000D03*
%TD*%
D11*
%TO.C,K5*%
X42600000Y-91340000D03*
D12*
X52760000Y-91340000D03*
X60380000Y-91340000D03*
X42600000Y-83720000D03*
%TD*%
D21*
%TO.C,R1*%
X74730000Y-42500000D03*
X84890000Y-42500000D03*
%TD*%
D22*
%TO.C,A1*%
X131250600Y-85245000D03*
X131250600Y-82705000D03*
X131250600Y-80165000D03*
X131250600Y-77625000D03*
X131250600Y-75085000D03*
X131250600Y-72545000D03*
X131250600Y-70005000D03*
X131250600Y-67465000D03*
X131250600Y-64925000D03*
X131250600Y-62385000D03*
X131250600Y-59845000D03*
X131250600Y-57305000D03*
X131250600Y-54765000D03*
X131250600Y-52225000D03*
X131250600Y-49685000D03*
X105850600Y-49685000D03*
X105850600Y-52225000D03*
X105850600Y-54765000D03*
X105850600Y-57305000D03*
X105850600Y-59845000D03*
X105850600Y-62385000D03*
X105850600Y-64925000D03*
X105850600Y-67465000D03*
X105850600Y-70005000D03*
X105850600Y-72545000D03*
X105850600Y-75085000D03*
X105850600Y-77625000D03*
X105850600Y-80165000D03*
X105850600Y-82705000D03*
X105850600Y-85245000D03*
%TD*%
D17*
%TO.C,D5*%
X81500000Y-88000000D03*
D18*
X89120000Y-88000000D03*
%TD*%
D11*
%TO.C,K2*%
X42600000Y-53690000D03*
D12*
X52760000Y-53690000D03*
X60380000Y-53690000D03*
X42600000Y-46070000D03*
%TD*%
D21*
%TO.C,R6*%
X66920000Y-105000000D03*
X77080000Y-105000000D03*
%TD*%
D10*
%TO.C,H1*%
X25000000Y-31500000D03*
%TD*%
D21*
%TO.C,R5*%
X74650000Y-92500000D03*
X84810000Y-92500000D03*
%TD*%
%TO.C,R3*%
X74730000Y-68000000D03*
X84890000Y-68000000D03*
%TD*%
D23*
%TO.C,C8*%
X88500000Y-106500000D03*
D21*
X85000000Y-106500000D03*
%TD*%
D24*
%TO.C,D7*%
X139380000Y-104500000D03*
D16*
X143190000Y-104500000D03*
X147000000Y-104500000D03*
X150810000Y-104500000D03*
%TD*%
D25*
%TO.C,U2*%
X120775000Y-103825000D03*
X120775000Y-105525000D03*
X120775000Y-107225000D03*
D26*
X129925000Y-107225000D03*
D25*
X120775000Y-108925000D03*
X120775000Y-110625000D03*
%TD*%
D13*
%TO.C,Q1*%
X72270000Y-37000000D03*
D14*
X74810000Y-37000000D03*
X77350000Y-37000000D03*
%TD*%
D17*
%TO.C,D1*%
X82000000Y-37000000D03*
D18*
X89620000Y-37000000D03*
%TD*%
D13*
%TO.C,Q6*%
X64460000Y-99500000D03*
D14*
X67000000Y-99500000D03*
X69540000Y-99500000D03*
%TD*%
D19*
%TO.C,J3*%
X33000000Y-70420000D03*
D20*
X33000000Y-72960000D03*
X33000000Y-75500000D03*
%TD*%
D17*
%TO.C,D6*%
X73380000Y-99500000D03*
D18*
X81000000Y-99500000D03*
%TD*%
D21*
%TO.C,R2*%
X74730000Y-55000000D03*
X84890000Y-55000000D03*
%TD*%
D11*
%TO.C,K4*%
X42600000Y-78790000D03*
D12*
X52760000Y-78790000D03*
X60380000Y-78790000D03*
X42600000Y-71170000D03*
%TD*%
D11*
%TO.C,K3*%
X42600000Y-66240000D03*
D12*
X52760000Y-66240000D03*
X60380000Y-66240000D03*
X42600000Y-58620000D03*
%TD*%
D21*
%TO.C,C9*%
X88750000Y-98500000D03*
X86250000Y-98500000D03*
%TD*%
D13*
%TO.C,Q2*%
X72270000Y-49500000D03*
D14*
X74810000Y-49500000D03*
X77350000Y-49500000D03*
%TD*%
D27*
%TO.C,D8*%
X112000000Y-111400000D03*
X112000000Y-104600000D03*
%TD*%
D10*
%TO.C,H4*%
X151000000Y-31500000D03*
%TD*%
D21*
%TO.C,R4*%
X74730000Y-80000000D03*
X84890000Y-80000000D03*
%TD*%
D28*
%TO.C,L1*%
X94800000Y-106000000D03*
X104500000Y-106000000D03*
%TD*%
D29*
%TO.C,C5*%
X140987200Y-74000000D03*
D16*
X148487200Y-74000000D03*
%TD*%
D19*
%TO.C,J4*%
X66000000Y-85040000D03*
D20*
X66000000Y-82500000D03*
X66000000Y-79960000D03*
X66000000Y-77420000D03*
X66000000Y-74880000D03*
X66000000Y-72340000D03*
X66000000Y-69800000D03*
X66000000Y-67260000D03*
X66000000Y-64720000D03*
X66000000Y-62180000D03*
X66000000Y-59640000D03*
X66000000Y-57100000D03*
X66000000Y-54560000D03*
X66000000Y-52020000D03*
%TD*%
M02*
