M48
; DRILL file {KiCad 9.0.6-9.0.6~ubuntu22.04.1} date 2025-11-18T11:24:41-0600
; FORMAT={-:-/ absolute / inch / decimal}
; #@! TF.CreationDate,2025-11-18T11:24:41-06:00
; #@! TF.GenerationSoftware,Kicad,Pcbnew,9.0.6-9.0.6~ubuntu22.04.1
; #@! TF.FileFunction,Plated,1,2,PTH
FMAT,2
INCH
; #@! TA.AperFunction,Plated,PTH,ViaDrill
T1C0.0118
; #@! TA.AperFunction,Plated,PTH,ComponentDrill
T2C0.0315
; #@! TA.AperFunction,Plated,PTH,ComponentDrill
T3C0.0394
; #@! TA.AperFunction,Plated,PTH,ComponentDrill
T4C0.0433
; #@! TA.AperFunction,Plated,PTH,ComponentDrill
T5C0.0472
; #@! TA.AperFunction,Plated,PTH,ComponentDrill
T6C0.0512
; #@! TA.AperFunction,Plated,PTH,ComponentDrill
T7C0.1260
%
G90
G05
T1
X1.5868Y-3.9567
X2.1502Y-2.014
X2.1989Y-1.9649
X2.2441Y-1.8898
X2.271Y-1.5392
X2.2999Y-1.7452
X2.6695Y-2.1099
X3.1102Y-2.6181
X3.2164Y-2.5969
X3.6798Y-2.201
X3.8478Y-1.935
X4.7453Y-3.9813
X5.065Y-2.3622
X5.8142Y-3.2762
T2
X1.244Y-4.0271
X1.244Y-4.1271
X1.244Y-4.2271
X1.244Y-4.3271
X1.4961Y-2.6937
X1.4961Y-3.0937
X2.5378Y-3.9173
X2.6346Y-4.1339
X2.6378Y-3.9173
X2.7378Y-3.9173
X2.8453Y-1.4567
X2.8453Y-1.9488
X2.8453Y-2.4409
X2.8453Y-2.9331
X2.8469Y-3.4252
X2.939Y-3.6417
X2.9421Y-1.6732
X2.9421Y-2.1654
X2.9421Y-2.6772
X2.9421Y-3.1496
X2.9453Y-1.4567
X2.9453Y-1.9488
X2.9453Y-2.4409
X2.9453Y-2.9331
X2.9469Y-3.4252
X3.0346Y-4.1339
X3.0453Y-1.4567
X3.0453Y-1.9488
X3.0453Y-2.4409
X3.0453Y-2.9331
X3.0469Y-3.4252
X3.339Y-3.6417
X3.3421Y-1.6732
X3.3421Y-2.1654
X3.3421Y-2.6772
X3.3421Y-3.1496
X3.3465Y-4.1929
X3.3957Y-3.878
X3.4843Y-4.1929
X3.4941Y-3.878
X5.6693Y-2.3425
X5.7677Y-2.3425
T3
X1.2992Y-2.7724
X1.2992Y-2.8724
X1.2992Y-2.9724
X2.5984Y-2.048
X2.5984Y-2.148
X2.5984Y-2.248
X2.5984Y-2.348
X2.5984Y-2.448
X2.5984Y-2.548
X2.5984Y-2.648
X2.5984Y-2.748
X2.5984Y-2.848
X2.5984Y-2.948
X2.5984Y-3.048
X2.5984Y-3.148
X2.5984Y-3.248
X2.5984Y-3.348
X3.772Y-1.5969
X3.772Y-1.6969
X3.772Y-1.7969
X3.772Y-1.8969
X3.772Y-1.9969
X3.772Y-2.0969
X3.772Y-2.1969
X3.772Y-2.2969
X3.772Y-2.3969
X3.772Y-2.4969
X3.772Y-2.5969
X3.772Y-2.6969
X3.772Y-2.7969
X3.772Y-2.8969
X3.772Y-2.9969
X3.772Y-3.0969
X3.772Y-3.1969
X3.772Y-3.2969
X4.1673Y-1.9561
X4.1673Y-2.0561
X4.1673Y-2.1561
X4.1673Y-2.2561
X4.1673Y-2.3561
X4.1673Y-2.4561
X4.1673Y-2.5561
X4.1673Y-2.6561
X4.1673Y-2.7561
X4.1673Y-2.8561
X4.1673Y-2.9561
X4.1673Y-3.0561
X4.1673Y-3.1561
X4.1673Y-3.2561
X4.1673Y-3.3561
X5.1673Y-1.9561
X5.1673Y-2.0561
X5.1673Y-2.1561
X5.1673Y-2.2561
X5.1673Y-2.3561
X5.1673Y-2.4561
X5.1673Y-2.5561
X5.1673Y-2.6561
X5.1673Y-2.7561
X5.1673Y-2.8561
X5.1673Y-2.9561
X5.1673Y-3.0561
X5.1673Y-3.1561
X5.1673Y-3.2561
X5.1673Y-3.3561
T4
X2.889Y-3.9173
X3.189Y-3.9173
X3.2087Y-3.4646
X3.2161Y-2.4409
X3.2161Y-2.9331
X3.2283Y-1.4567
X3.2283Y-1.9488
X3.5087Y-3.4646
X3.5161Y-2.4409
X3.5161Y-2.9331
X3.5283Y-1.4567
X3.5283Y-1.9488
T5
X1.3189Y-1.3386
X1.3189Y-1.4764
X1.3189Y-1.6142
X1.3189Y-1.752
X1.3189Y-1.8898
X1.3189Y-2.0276
X1.3189Y-2.1654
X1.3189Y-2.3031
X1.3189Y-2.4409
X5.4874Y-4.1142
X5.5507Y-2.9134
X5.6374Y-4.1142
X5.7874Y-4.1142
X5.846Y-2.9134
X5.9374Y-4.1142
T6
X1.6772Y-1.3197
X1.6772Y-1.6197
X1.6772Y-1.8138
X1.6772Y-2.1138
X1.6772Y-2.3079
X1.6772Y-2.6079
X1.6772Y-2.802
X1.6772Y-3.102
X1.6772Y-3.2961
X1.6772Y-3.5961
X1.6772Y-3.7902
X1.6772Y-4.0902
X2.0772Y-1.6197
X2.0772Y-2.1138
X2.0772Y-2.6079
X2.0772Y-3.102
X2.0772Y-3.5961
X2.0772Y-4.0902
X2.3772Y-1.6197
X2.3772Y-2.1138
X2.3772Y-2.6079
X2.3772Y-3.102
X2.3772Y-3.5961
X2.3772Y-4.0902
T7
X0.9843Y-1.2402
X0.9843Y-4.4882
X5.9449Y-1.2402
X5.9449Y-4.4882
M30
